%TF.GenerationSoftware,KiCad,Pcbnew,8.0.5*%
%TF.CreationDate,2024-10-09T23:06:34-04:00*%
%TF.ProjectId,4-Channel Array V3,342d4368-616e-46e6-956c-204172726179,rev?*%
%TF.SameCoordinates,Original*%
%TF.FileFunction,Soldermask,Top*%
%TF.FilePolarity,Negative*%
%FSLAX46Y46*%
G04 Gerber Fmt 4.6, Leading zero omitted, Abs format (unit mm)*
G04 Created by KiCad (PCBNEW 8.0.5) date 2024-10-09 23:06:34*
%MOMM*%
%LPD*%
G01*
G04 APERTURE LIST*
G04 Aperture macros list*
%AMRoundRect*
0 Rectangle with rounded corners*
0 $1 Rounding radius*
0 $2 $3 $4 $5 $6 $7 $8 $9 X,Y pos of 4 corners*
0 Add a 4 corners polygon primitive as box body*
4,1,4,$2,$3,$4,$5,$6,$7,$8,$9,$2,$3,0*
0 Add four circle primitives for the rounded corners*
1,1,$1+$1,$2,$3*
1,1,$1+$1,$4,$5*
1,1,$1+$1,$6,$7*
1,1,$1+$1,$8,$9*
0 Add four rect primitives between the rounded corners*
20,1,$1+$1,$2,$3,$4,$5,0*
20,1,$1+$1,$4,$5,$6,$7,0*
20,1,$1+$1,$6,$7,$8,$9,0*
20,1,$1+$1,$8,$9,$2,$3,0*%
G04 Aperture macros list end*
%ADD10C,0.550000*%
%ADD11RoundRect,0.200000X0.200000X0.275000X-0.200000X0.275000X-0.200000X-0.275000X0.200000X-0.275000X0*%
%ADD12RoundRect,0.200000X-0.200000X-0.275000X0.200000X-0.275000X0.200000X0.275000X-0.200000X0.275000X0*%
%ADD13RoundRect,0.250000X0.600000X0.725000X-0.600000X0.725000X-0.600000X-0.725000X0.600000X-0.725000X0*%
%ADD14O,1.700000X1.950000*%
%ADD15RoundRect,0.200000X0.275000X-0.200000X0.275000X0.200000X-0.275000X0.200000X-0.275000X-0.200000X0*%
%ADD16RoundRect,0.140000X0.170000X-0.140000X0.170000X0.140000X-0.170000X0.140000X-0.170000X-0.140000X0*%
%ADD17C,0.800000*%
%ADD18RoundRect,0.102000X-0.375000X0.225000X-0.375000X-0.225000X0.375000X-0.225000X0.375000X0.225000X0*%
%ADD19RoundRect,0.102000X0.375000X-0.225000X0.375000X0.225000X-0.375000X0.225000X-0.375000X-0.225000X0*%
%ADD20RoundRect,0.140000X-0.170000X0.140000X-0.170000X-0.140000X0.170000X-0.140000X0.170000X0.140000X0*%
%ADD21RoundRect,0.102000X-0.711200X-0.177800X0.711200X-0.177800X0.711200X0.177800X-0.711200X0.177800X0*%
G04 APERTURE END LIST*
D10*
%TO.C,MK4*%
X180805000Y-79980000D02*
G75*
G02*
X179195000Y-79980000I-805000J0D01*
G01*
X179195000Y-79980000D02*
G75*
G02*
X180805000Y-79980000I805000J0D01*
G01*
%TO.C,MK2*%
X150805000Y-79980000D02*
G75*
G02*
X149195000Y-79980000I-805000J0D01*
G01*
X149195000Y-79980000D02*
G75*
G02*
X150805000Y-79980000I805000J0D01*
G01*
%TO.C,MK3*%
X180805000Y-50000000D02*
G75*
G02*
X179195000Y-50000000I-805000J0D01*
G01*
X179195000Y-50000000D02*
G75*
G02*
X180805000Y-50000000I805000J0D01*
G01*
%TO.C,MK1*%
X150805000Y-50000000D02*
G75*
G02*
X149195000Y-50000000I-805000J0D01*
G01*
X149195000Y-50000000D02*
G75*
G02*
X150805000Y-50000000I805000J0D01*
G01*
%TD*%
D11*
%TO.C,R7*%
X179000000Y-64000000D03*
X177350000Y-64000000D03*
%TD*%
D12*
%TO.C,R5*%
X150850000Y-64000000D03*
X152500000Y-64000000D03*
%TD*%
D13*
%TO.C,J1*%
X170000000Y-52500000D03*
D14*
X167500000Y-52500000D03*
X165000000Y-52500000D03*
X162500000Y-52500000D03*
X160000000Y-52500000D03*
%TD*%
D12*
%TO.C,R3*%
X178350000Y-60000000D03*
X180000000Y-60000000D03*
%TD*%
D11*
%TO.C,R8*%
X179000000Y-66000000D03*
X177350000Y-66000000D03*
%TD*%
D15*
%TO.C,R1*%
X153000000Y-57150000D03*
X153000000Y-55500000D03*
%TD*%
D16*
%TO.C,C2*%
X154000000Y-53480000D03*
X154000000Y-52520000D03*
%TD*%
D12*
%TO.C,C3*%
X167675000Y-56500000D03*
X169325000Y-56500000D03*
%TD*%
D17*
%TO.C,MK4*%
X180000000Y-79980000D03*
D18*
X180850000Y-77800000D03*
X180850000Y-78500000D03*
X179150000Y-77800000D03*
X179150000Y-78500000D03*
%TD*%
D16*
%TO.C,C6*%
X177000000Y-52480000D03*
X177000000Y-51520000D03*
%TD*%
D17*
%TO.C,MK2*%
X150000000Y-79980000D03*
D18*
X150850000Y-77800000D03*
X150850000Y-78500000D03*
X149150000Y-77800000D03*
X149150000Y-78500000D03*
%TD*%
D17*
%TO.C,MK3*%
X180000000Y-50000000D03*
D19*
X179150000Y-52180000D03*
X179150000Y-51480000D03*
X180850000Y-52180000D03*
X180850000Y-51480000D03*
%TD*%
D20*
%TO.C,C5*%
X177500000Y-77520000D03*
X177500000Y-78480000D03*
%TD*%
D21*
%TO.C,U1*%
X162000000Y-70500000D03*
X162000000Y-71160400D03*
X162000000Y-71795400D03*
X162000000Y-72455800D03*
X162000000Y-73116200D03*
X162000000Y-73751200D03*
X162000000Y-74411600D03*
X167689600Y-74411600D03*
X167689600Y-73751200D03*
X167689600Y-73116200D03*
X167689600Y-72455800D03*
X167689600Y-71795400D03*
X167689600Y-71160400D03*
X167689600Y-70500000D03*
%TD*%
D12*
%TO.C,R6*%
X150850000Y-66000000D03*
X152500000Y-66000000D03*
%TD*%
D11*
%TO.C,R2*%
X151825000Y-74000000D03*
X150175000Y-74000000D03*
%TD*%
D15*
%TO.C,C1*%
X170000000Y-71325000D03*
X170000000Y-69675000D03*
%TD*%
D20*
%TO.C,C4*%
X152500000Y-79520000D03*
X152500000Y-80480000D03*
%TD*%
D12*
%TO.C,R4*%
X175675000Y-74500000D03*
X177325000Y-74500000D03*
%TD*%
D17*
%TO.C,MK1*%
X150000000Y-50000000D03*
D19*
X149150000Y-52180000D03*
X149150000Y-51480000D03*
X150850000Y-52180000D03*
X150850000Y-51480000D03*
%TD*%
M02*
