M48
; DRILL file {KiCad 8.0.5} date 2024-10-09T23:06:28-0400
; FORMAT={-:-/ absolute / inch / decimal}
; #@! TF.CreationDate,2024-10-09T23:06:28-04:00
; #@! TF.GenerationSoftware,Kicad,Pcbnew,8.0.5
; #@! TF.FileFunction,Plated,1,2,PTH
FMAT,2
INCH
; #@! TA.AperFunction,Plated,PTH,ViaDrill
T1C0.0118
; #@! TA.AperFunction,Plated,PTH,ComponentDrill
T2C0.0374
%
G90
G05
T1
X5.9252Y-2.0079
X5.9646Y-3.1299
X5.9843Y-2.1063
X5.9843Y-2.9921
X6.0236Y-2.0669
X6.0236Y-2.1457
X6.0236Y-2.3228
X6.1122Y-2.5886
X6.437Y-2.7756
X6.437Y-2.8526
X6.437Y-2.9296
X6.54Y-2.8786
X6.5402Y-2.803
X6.6929Y-1.9291
X6.7323Y-2.2244
X6.8898Y-2.5591
X6.9094Y-2.0472
X7.0079Y-2.126
X7.0079Y-2.9921
X7.0079Y-3.1102
X7.0866Y-2.0079
T2
X6.2992Y-2.0669
X6.3976Y-2.0669
X6.4961Y-2.0669
X6.5945Y-2.0669
X6.6929Y-2.0669
M30
