%TF.GenerationSoftware,KiCad,Pcbnew,8.0.5*%
%TF.CreationDate,2024-10-09T23:06:34-04:00*%
%TF.ProjectId,4-Channel Array V3,342d4368-616e-46e6-956c-204172726179,rev?*%
%TF.SameCoordinates,Original*%
%TF.FileFunction,Legend,Bot*%
%TF.FilePolarity,Positive*%
%FSLAX46Y46*%
G04 Gerber Fmt 4.6, Leading zero omitted, Abs format (unit mm)*
G04 Created by KiCad (PCBNEW 8.0.5) date 2024-10-09 23:06:34*
%MOMM*%
%LPD*%
G01*
G04 APERTURE LIST*
%ADD10C,0.000000*%
G04 APERTURE END LIST*
D10*
%TO.C,G\u002A\u002A\u002A*%
G36*
X179999422Y-67484359D02*
G01*
X180014778Y-74256650D01*
X164984360Y-74241139D01*
X149953941Y-74225627D01*
X164952799Y-74209729D01*
X179951656Y-74193832D01*
X179967860Y-67452950D01*
X179984065Y-60712070D01*
X179999422Y-67484359D01*
G37*
G36*
X169537786Y-64652161D02*
G01*
X169663631Y-64885646D01*
X170023687Y-65611891D01*
X170295520Y-66415420D01*
X170337514Y-66591796D01*
X170372844Y-66814440D01*
X170394775Y-67078899D01*
X170405471Y-67412881D01*
X170407097Y-67844088D01*
X170407047Y-67854953D01*
X170403308Y-68245858D01*
X170393931Y-68543042D01*
X170375463Y-68777146D01*
X170344453Y-68978814D01*
X170297450Y-69178689D01*
X170231001Y-69407413D01*
X170211702Y-69468862D01*
X170093900Y-69800483D01*
X169955080Y-70140464D01*
X169821339Y-70424038D01*
X169782415Y-70499773D01*
X169690996Y-70693091D01*
X169639325Y-70827769D01*
X169637705Y-70878325D01*
X169662668Y-70888851D01*
X169692118Y-70972167D01*
X169674614Y-71022619D01*
X169581242Y-71066010D01*
X169542780Y-71079739D01*
X169510961Y-71103962D01*
X169424403Y-71169857D01*
X169264490Y-71325928D01*
X169085984Y-71526613D01*
X168793085Y-71846731D01*
X168214235Y-72351064D01*
X167559227Y-72787277D01*
X166854403Y-73138794D01*
X166126109Y-73389038D01*
X165803277Y-73456410D01*
X165308011Y-73513928D01*
X164768926Y-73536393D01*
X164226988Y-73523750D01*
X163723164Y-73475942D01*
X163298421Y-73392913D01*
X162653837Y-73176569D01*
X161941201Y-72837036D01*
X161281124Y-72414387D01*
X160695593Y-71922959D01*
X160206594Y-71377087D01*
X160085872Y-71235116D01*
X159952060Y-71112986D01*
X159920330Y-71097290D01*
X160046680Y-71097290D01*
X160528739Y-71615521D01*
X160672078Y-71764416D01*
X160932728Y-72016120D01*
X161189837Y-72244731D01*
X161404228Y-72414497D01*
X161748645Y-72637087D01*
X162284834Y-72919077D01*
X162846459Y-73151987D01*
X163381095Y-73312012D01*
X163392501Y-73314611D01*
X163723191Y-73378353D01*
X164086446Y-73431382D01*
X164405665Y-73462451D01*
X164958104Y-73466695D01*
X165748974Y-73374602D01*
X166520013Y-73172988D01*
X167255008Y-72868960D01*
X167937745Y-72469622D01*
X168552011Y-71982078D01*
X169081592Y-71413434D01*
X169327320Y-71103962D01*
X169181271Y-71049394D01*
X169109118Y-71020000D01*
X169075092Y-70977920D01*
X169144705Y-70914037D01*
X169207799Y-70849284D01*
X169254187Y-70734357D01*
X169232922Y-70626799D01*
X169166419Y-70627607D01*
X169053029Y-70740926D01*
X168891108Y-70967811D01*
X168806974Y-71085843D01*
X168606844Y-71331801D01*
X168367590Y-71596565D01*
X168124345Y-71840159D01*
X167978757Y-71971220D01*
X167372658Y-72414287D01*
X166697469Y-72763231D01*
X165975337Y-73006038D01*
X165791420Y-73046564D01*
X165249875Y-73116503D01*
X164667776Y-73132713D01*
X164096327Y-73095234D01*
X163586732Y-73004109D01*
X163347108Y-72935716D01*
X162665571Y-72662940D01*
X162022202Y-72291819D01*
X161442627Y-71838734D01*
X160952471Y-71320068D01*
X160918780Y-71278577D01*
X160778789Y-71119980D01*
X160672635Y-71021408D01*
X160621109Y-71002769D01*
X160603488Y-71017387D01*
X160490138Y-71053510D01*
X160317017Y-71077339D01*
X160046680Y-71097290D01*
X159920330Y-71097290D01*
X159857095Y-71066010D01*
X159796613Y-71056088D01*
X159744828Y-71003448D01*
X159747242Y-70986661D01*
X159810451Y-70940886D01*
X159814505Y-70939935D01*
X159811005Y-70878273D01*
X159755291Y-70739360D01*
X159657780Y-70549877D01*
X159499809Y-70227346D01*
X159342139Y-69836911D01*
X159298003Y-69708192D01*
X159408983Y-69708192D01*
X159422991Y-69807270D01*
X159481465Y-69979983D01*
X159575158Y-70197404D01*
X159602976Y-70256195D01*
X159754339Y-70558378D01*
X159869626Y-70751415D01*
X159953953Y-70842821D01*
X160012432Y-70840113D01*
X160014913Y-70836862D01*
X160034428Y-70745336D01*
X160047977Y-70566244D01*
X160048659Y-70544760D01*
X160308202Y-70544760D01*
X160318624Y-70709761D01*
X160345856Y-70841927D01*
X160382987Y-70888986D01*
X160479650Y-70934669D01*
X160576425Y-70939797D01*
X160618737Y-70893965D01*
X160610756Y-70867655D01*
X160554554Y-70754610D01*
X160462654Y-70596798D01*
X160308523Y-70346551D01*
X160308202Y-70544760D01*
X160048659Y-70544760D01*
X160055371Y-70333332D01*
X160056425Y-70080343D01*
X160050949Y-69841023D01*
X160038757Y-69649116D01*
X160019661Y-69538368D01*
X160006877Y-69515213D01*
X159900140Y-69451725D01*
X159771988Y-69439409D01*
X160307882Y-69439409D01*
X160307882Y-69785990D01*
X160313331Y-69923811D01*
X160341201Y-70080343D01*
X160355801Y-70162347D01*
X160450224Y-70408787D01*
X160608285Y-70690468D01*
X160746241Y-70893965D01*
X160841669Y-71034729D01*
X161190628Y-71468790D01*
X161748730Y-71996379D01*
X162380327Y-72426544D01*
X163075501Y-72752853D01*
X163824333Y-72968875D01*
X164314067Y-73040568D01*
X164986828Y-73058840D01*
X165652388Y-72993103D01*
X166266035Y-72845613D01*
X166428112Y-72789404D01*
X167130771Y-72468605D01*
X167772280Y-72047016D01*
X168338031Y-71535538D01*
X168813418Y-70945066D01*
X168915748Y-70793486D01*
X169041598Y-70596438D01*
X169099664Y-70474128D01*
X169092399Y-70408777D01*
X169022257Y-70382605D01*
X168891691Y-70377832D01*
X168871024Y-70377916D01*
X168710607Y-70394614D01*
X168604402Y-70462262D01*
X168499636Y-70612438D01*
X168466850Y-70670183D01*
X168391582Y-70836988D01*
X168364446Y-70956527D01*
X168356179Y-71015020D01*
X168296235Y-71066799D01*
X168292804Y-71067138D01*
X168212298Y-71118308D01*
X168208944Y-71121398D01*
X168080781Y-71239474D01*
X167924940Y-71406237D01*
X167705073Y-71631424D01*
X167242639Y-71998077D01*
X166713272Y-72308897D01*
X166153052Y-72540782D01*
X165953222Y-72603729D01*
X165713397Y-72665981D01*
X165483764Y-72702456D01*
X165219275Y-72719608D01*
X164874877Y-72723891D01*
X164629747Y-72722050D01*
X164343777Y-72709629D01*
X164107480Y-72679951D01*
X163876010Y-72626641D01*
X163604518Y-72543324D01*
X163540025Y-72521414D01*
X163226011Y-72397947D01*
X162915079Y-72253208D01*
X162666094Y-72114120D01*
X162610089Y-72076834D01*
X162373706Y-71897479D01*
X162114496Y-71673483D01*
X161852553Y-71425307D01*
X161607969Y-71173414D01*
X161547397Y-71104649D01*
X161688515Y-71104649D01*
X161696727Y-71132109D01*
X161774543Y-71231186D01*
X161915636Y-71381528D01*
X162102106Y-71563287D01*
X162104426Y-71565464D01*
X162632971Y-71984011D01*
X163221229Y-72312270D01*
X163838038Y-72532836D01*
X164194979Y-72608655D01*
X164899223Y-72664599D01*
X165599464Y-72600523D01*
X166279507Y-72418589D01*
X166923154Y-72120960D01*
X167079980Y-72019467D01*
X167286130Y-71865779D01*
X167505918Y-71687099D01*
X167716547Y-71503374D01*
X167895222Y-71334551D01*
X168019144Y-71200577D01*
X168065517Y-71121398D01*
X168063492Y-71113900D01*
X167990497Y-71079848D01*
X167845210Y-71066010D01*
X167750191Y-71073127D01*
X167622828Y-71117746D01*
X167478906Y-71220048D01*
X167286459Y-71399088D01*
X167080646Y-71583901D01*
X166571785Y-71925236D01*
X166006086Y-72169553D01*
X165405423Y-72310778D01*
X164791670Y-72342839D01*
X164186700Y-72259663D01*
X163876830Y-72162722D01*
X163421912Y-71954568D01*
X162987287Y-71686966D01*
X162622660Y-71387630D01*
X162555131Y-71322100D01*
X162392938Y-71175473D01*
X162269997Y-71095215D01*
X162151170Y-71062777D01*
X162001323Y-71059608D01*
X161924928Y-71063225D01*
X161767600Y-71080585D01*
X161688515Y-71104649D01*
X161547397Y-71104649D01*
X161400837Y-70938266D01*
X161251252Y-70740323D01*
X161179305Y-70600049D01*
X161172323Y-70575322D01*
X161448817Y-70575322D01*
X161481329Y-70713493D01*
X161554916Y-70821443D01*
X161719608Y-70896565D01*
X161947244Y-70863889D01*
X162116408Y-70807256D01*
X161985629Y-70538072D01*
X161916646Y-70415171D01*
X161801047Y-70306287D01*
X161674074Y-70317761D01*
X161521958Y-70446885D01*
X161514457Y-70455297D01*
X161448817Y-70575322D01*
X161172323Y-70575322D01*
X161150677Y-70498657D01*
X161083235Y-70289438D01*
X160999533Y-70049174D01*
X160913180Y-69815415D01*
X160837787Y-69625710D01*
X160786965Y-69517611D01*
X160782324Y-69511270D01*
X160682250Y-69460311D01*
X160523155Y-69439409D01*
X160307882Y-69439409D01*
X159771988Y-69439409D01*
X159746141Y-69436925D01*
X159598997Y-69469688D01*
X159512822Y-69548891D01*
X159484511Y-69609530D01*
X159415175Y-69696912D01*
X159408983Y-69708192D01*
X159298003Y-69708192D01*
X159200418Y-69423589D01*
X159089731Y-69031386D01*
X159025164Y-68704310D01*
X158982348Y-68375862D01*
X158605886Y-68375862D01*
X158229425Y-68375862D01*
X158271488Y-68610468D01*
X158272291Y-68614928D01*
X158319801Y-68847992D01*
X158374704Y-69079680D01*
X158407684Y-69194399D01*
X158459704Y-69277714D01*
X158558228Y-69309320D01*
X158742562Y-69314285D01*
X158846850Y-69317869D01*
X159007694Y-69340424D01*
X159087931Y-69376847D01*
X159084094Y-69415407D01*
X158997263Y-69439409D01*
X158954719Y-69442426D01*
X158914185Y-69466486D01*
X158900852Y-69501970D01*
X158889380Y-69532502D01*
X158876939Y-69661259D01*
X158873493Y-69873546D01*
X158875678Y-70190148D01*
X158877889Y-70372570D01*
X158884258Y-70632153D01*
X158896439Y-70798155D01*
X158917923Y-70891197D01*
X158952200Y-70931901D01*
X159002761Y-70940886D01*
X159075647Y-70934750D01*
X159084437Y-70893165D01*
X159018337Y-70782530D01*
X159017313Y-70780962D01*
X158953713Y-70661182D01*
X158944856Y-70593896D01*
X158947740Y-70592714D01*
X158999909Y-70639997D01*
X159094806Y-70767459D01*
X159214190Y-70950922D01*
X159397594Y-71215747D01*
X159690056Y-71573329D01*
X160030623Y-71940375D01*
X160388578Y-72284109D01*
X160733204Y-72571757D01*
X160734173Y-72572492D01*
X161170136Y-72866292D01*
X161679776Y-73150642D01*
X162212841Y-73399824D01*
X162719083Y-73588121D01*
X163508313Y-73779558D01*
X164371317Y-73869967D01*
X165237700Y-73843954D01*
X166092984Y-73703956D01*
X166922691Y-73452407D01*
X167712345Y-73091744D01*
X168447467Y-72624402D01*
X168463068Y-72612802D01*
X168805600Y-72331201D01*
X169163872Y-71992890D01*
X169507937Y-71629420D01*
X169807849Y-71272343D01*
X170033659Y-70953211D01*
X170052454Y-70922970D01*
X170169102Y-70745049D01*
X170257777Y-70625937D01*
X170300544Y-70590035D01*
X170299042Y-70660361D01*
X170227412Y-70807472D01*
X170096579Y-71010959D01*
X169920320Y-71252801D01*
X169712415Y-71514977D01*
X169486640Y-71779466D01*
X169256773Y-72028244D01*
X169036594Y-72243291D01*
X168933010Y-72335723D01*
X168219216Y-72876136D01*
X167429032Y-73317979D01*
X166563988Y-73660508D01*
X165625616Y-73902977D01*
X165574238Y-73908727D01*
X165399858Y-73915996D01*
X165140387Y-73919398D01*
X164821338Y-73918698D01*
X164468227Y-73913661D01*
X164071552Y-73900955D01*
X163577822Y-73864106D01*
X163148623Y-73798549D01*
X162748688Y-73696593D01*
X162342747Y-73550549D01*
X161895532Y-73352728D01*
X161237124Y-72999548D01*
X160551095Y-72527578D01*
X159949328Y-71994676D01*
X159450198Y-71415400D01*
X159176685Y-71045333D01*
X158778797Y-71059757D01*
X158611986Y-71059518D01*
X158438096Y-71040982D01*
X158338909Y-71007559D01*
X158331199Y-70965880D01*
X158431738Y-70922575D01*
X158448908Y-70917561D01*
X158505714Y-70881729D01*
X158538131Y-70802841D01*
X158552749Y-70653570D01*
X158556158Y-70406588D01*
X158547607Y-70157050D01*
X158518808Y-69882924D01*
X158474804Y-69654235D01*
X158420914Y-69497542D01*
X158392648Y-69469432D01*
X158506963Y-69469432D01*
X158514450Y-69543678D01*
X158533268Y-69553465D01*
X158556158Y-69501970D01*
X158551643Y-69468850D01*
X158514450Y-69460262D01*
X158506963Y-69469432D01*
X158392648Y-69469432D01*
X158362458Y-69439409D01*
X158337376Y-69422707D01*
X158318465Y-69329926D01*
X158317626Y-69303743D01*
X158298840Y-69160452D01*
X158260574Y-68943498D01*
X158208939Y-68688670D01*
X158153714Y-68363875D01*
X158108793Y-67925507D01*
X158090791Y-67484452D01*
X158085800Y-67192302D01*
X158071291Y-66950314D01*
X158047218Y-66830615D01*
X158013266Y-66831831D01*
X157969121Y-66952586D01*
X157957066Y-66993440D01*
X157920308Y-67050873D01*
X157868940Y-66999507D01*
X157833753Y-66920835D01*
X157814760Y-66811822D01*
X158180788Y-66811822D01*
X158180788Y-67531281D01*
X158181008Y-67627222D01*
X158186455Y-67924118D01*
X158200579Y-68116289D01*
X158225194Y-68219805D01*
X158262118Y-68250739D01*
X158346223Y-68235307D01*
X158418365Y-68166013D01*
X158463567Y-68024759D01*
X158486941Y-67794004D01*
X158492865Y-67493306D01*
X158743843Y-67493306D01*
X158744797Y-67690129D01*
X158751994Y-67935595D01*
X158768758Y-68090210D01*
X158798043Y-68175443D01*
X158842802Y-68212764D01*
X158895259Y-68232080D01*
X158963739Y-68239325D01*
X158980096Y-68176185D01*
X158960163Y-68016133D01*
X158958852Y-68006842D01*
X158949676Y-67820728D01*
X158955279Y-67620049D01*
X159063083Y-67620049D01*
X159068489Y-67974843D01*
X159085866Y-68331135D01*
X159114500Y-68655228D01*
X159153675Y-68913426D01*
X159162576Y-68955975D01*
X159216535Y-69193422D01*
X159267330Y-69388022D01*
X159309526Y-69524065D01*
X159337692Y-69585843D01*
X159346393Y-69557647D01*
X159330196Y-69423768D01*
X159321794Y-69342719D01*
X159337578Y-69217409D01*
X159389369Y-69181103D01*
X159463301Y-69251724D01*
X159469379Y-69259066D01*
X159566726Y-69298294D01*
X159725425Y-69314285D01*
X159792017Y-69313959D01*
X159899774Y-69298383D01*
X159929544Y-69232475D01*
X159910106Y-69079680D01*
X159906283Y-69055301D01*
X159881249Y-68820714D01*
X159870639Y-68583120D01*
X159870267Y-68441501D01*
X159937362Y-68441501D01*
X159954585Y-68681558D01*
X159979916Y-68912263D01*
X160008199Y-69105100D01*
X160032997Y-69215193D01*
X160071879Y-69264205D01*
X160190882Y-69302860D01*
X160408418Y-69314285D01*
X160745813Y-69314285D01*
X160745813Y-68845074D01*
X160745484Y-68750868D01*
X160808375Y-68750868D01*
X160809557Y-68827506D01*
X160811571Y-68845074D01*
X160836449Y-69062092D01*
X160897363Y-69185134D01*
X160977244Y-69288650D01*
X161051500Y-69445874D01*
X161069792Y-69502278D01*
X161083161Y-69614342D01*
X161030449Y-69665838D01*
X161023922Y-69668490D01*
X160981343Y-69710594D01*
X160985939Y-69802038D01*
X161038571Y-69975740D01*
X161062121Y-70042403D01*
X161144991Y-70226862D01*
X161216452Y-70293535D01*
X161280901Y-70247346D01*
X161286811Y-70239258D01*
X161382340Y-70166481D01*
X161533872Y-70089750D01*
X161670136Y-70020898D01*
X161718930Y-69939737D01*
X161705315Y-69798966D01*
X161662548Y-69608980D01*
X161625414Y-69527015D01*
X161756435Y-69527015D01*
X161773404Y-69718019D01*
X161779510Y-69748905D01*
X161829725Y-69899085D01*
X161898319Y-69930643D01*
X161994550Y-69849064D01*
X162040421Y-69764028D01*
X162032141Y-69608241D01*
X161921843Y-69479608D01*
X161902273Y-69467918D01*
X161798878Y-69444474D01*
X161756435Y-69527015D01*
X161625414Y-69527015D01*
X161610534Y-69494170D01*
X161548014Y-69489278D01*
X161465835Y-69586173D01*
X161395237Y-69682579D01*
X161310995Y-69742745D01*
X161262102Y-69683347D01*
X161246306Y-69503534D01*
X161246691Y-69434054D01*
X161259949Y-69313245D01*
X161311869Y-69275894D01*
X161428810Y-69291353D01*
X161611315Y-69327854D01*
X161613552Y-69276691D01*
X161715517Y-69276691D01*
X161918457Y-69318788D01*
X161963339Y-69328810D01*
X162169830Y-69410801D01*
X162278343Y-69546156D01*
X162309852Y-69758435D01*
X162309814Y-69764028D01*
X162309533Y-69804805D01*
X162297064Y-69924487D01*
X162248602Y-70013886D01*
X162140083Y-70104051D01*
X161947442Y-70226029D01*
X161946093Y-70234333D01*
X161973604Y-70319502D01*
X162037231Y-70463929D01*
X162079047Y-70544898D01*
X162164176Y-70663754D01*
X162224427Y-70683691D01*
X162247291Y-70596798D01*
X162254349Y-70553628D01*
X162309852Y-70502955D01*
X162327830Y-70514652D01*
X162359767Y-70613167D01*
X162372414Y-70779233D01*
X162372911Y-70807256D01*
X162373856Y-70860610D01*
X162392212Y-70984658D01*
X162447450Y-71093561D01*
X162559070Y-71219362D01*
X162746571Y-71394104D01*
X163025012Y-71622256D01*
X163563414Y-71944372D01*
X164163618Y-72160344D01*
X164529770Y-72224050D01*
X164974141Y-72246939D01*
X165419189Y-72224135D01*
X165806273Y-72155798D01*
X165948751Y-72113312D01*
X166447342Y-71901564D01*
X166915462Y-71610173D01*
X167321820Y-71261036D01*
X167635127Y-70876048D01*
X167709278Y-70767003D01*
X167807002Y-70643329D01*
X167865971Y-70593131D01*
X167873809Y-70625080D01*
X167818139Y-70747844D01*
X167780612Y-70832159D01*
X167780183Y-70878325D01*
X168218058Y-70878325D01*
X168268565Y-70838916D01*
X168359123Y-70710225D01*
X168465955Y-70518596D01*
X168518774Y-70405895D01*
X168530255Y-70333083D01*
X168479655Y-70315271D01*
X168447831Y-70328202D01*
X168433351Y-70346551D01*
X168369110Y-70427955D01*
X168294161Y-70596798D01*
X168263297Y-70690730D01*
X168224554Y-70825410D01*
X168218058Y-70878325D01*
X167780183Y-70878325D01*
X167799447Y-70868082D01*
X167860782Y-70782506D01*
X167926329Y-70651505D01*
X167972645Y-70525630D01*
X167976288Y-70455434D01*
X167960362Y-70448223D01*
X167940394Y-70502955D01*
X167936937Y-70536259D01*
X167906820Y-70552797D01*
X167904261Y-70510762D01*
X167936111Y-70379359D01*
X167947652Y-70346551D01*
X168002956Y-70346551D01*
X168034237Y-70377832D01*
X168065517Y-70346551D01*
X168034237Y-70315271D01*
X168002956Y-70346551D01*
X167947652Y-70346551D01*
X167991669Y-70221428D01*
X168065517Y-70221428D01*
X168096798Y-70252709D01*
X168128079Y-70221428D01*
X168096798Y-70190148D01*
X168065517Y-70221428D01*
X167991669Y-70221428D01*
X168000320Y-70196835D01*
X168014004Y-70161227D01*
X168051265Y-70033744D01*
X168128079Y-70033744D01*
X168159360Y-70065024D01*
X168189809Y-70034576D01*
X168528941Y-70034576D01*
X168551018Y-70137619D01*
X168590365Y-70167763D01*
X168634440Y-70153456D01*
X168666559Y-70090433D01*
X168768214Y-70090433D01*
X168783749Y-70163436D01*
X168876277Y-70173137D01*
X168917898Y-70168110D01*
X168982467Y-70123454D01*
X168970952Y-70004664D01*
X168937710Y-69890853D01*
X168887587Y-69807739D01*
X168837893Y-69848970D01*
X168784143Y-70014789D01*
X168768214Y-70090433D01*
X168666559Y-70090433D01*
X168682683Y-70058795D01*
X168749685Y-69863659D01*
X168751217Y-69858861D01*
X168789143Y-69666572D01*
X168770570Y-69534346D01*
X168768822Y-69531300D01*
X168726615Y-69506179D01*
X168674293Y-69576750D01*
X168602030Y-69755934D01*
X168575300Y-69834108D01*
X168529133Y-70033744D01*
X168528941Y-70034576D01*
X168189809Y-70034576D01*
X168190641Y-70033744D01*
X168159360Y-70002463D01*
X168128079Y-70033744D01*
X168051265Y-70033744D01*
X168090777Y-69898561D01*
X168205553Y-69898561D01*
X168238824Y-69854381D01*
X168305360Y-69699497D01*
X168402983Y-69436354D01*
X168456378Y-69293838D01*
X168458347Y-69289631D01*
X168996126Y-69289631D01*
X169011525Y-69524633D01*
X169040498Y-69666572D01*
X169048913Y-69707799D01*
X169113371Y-69877340D01*
X169225142Y-70123454D01*
X169241225Y-70158867D01*
X169342525Y-69923934D01*
X169466495Y-69564811D01*
X169571751Y-69080379D01*
X169631111Y-68561326D01*
X169637319Y-68053670D01*
X169629557Y-67887882D01*
X169424729Y-68084950D01*
X169371887Y-68134616D01*
X169368981Y-68137141D01*
X169223838Y-68263275D01*
X169114072Y-68344581D01*
X169104044Y-68351049D01*
X169055704Y-68410473D01*
X169024597Y-68522612D01*
X169006912Y-68706487D01*
X169006423Y-68711576D01*
X168996880Y-69001478D01*
X168996126Y-69289631D01*
X168458347Y-69289631D01*
X168565066Y-69061651D01*
X168657623Y-68951832D01*
X168733477Y-68964872D01*
X168792058Y-69101265D01*
X168821716Y-69185844D01*
X168864392Y-69209880D01*
X168902280Y-69133291D01*
X168929562Y-68970415D01*
X168940421Y-68735591D01*
X168940491Y-68706487D01*
X168937081Y-68516657D01*
X168915686Y-68418357D01*
X168861013Y-68381465D01*
X168757767Y-68375862D01*
X168603155Y-68361855D01*
X168416920Y-68316081D01*
X168259685Y-68256301D01*
X168296609Y-68779507D01*
X168304086Y-68940616D01*
X168306238Y-68986991D01*
X168298216Y-69330837D01*
X168259269Y-69597636D01*
X168247512Y-69645038D01*
X168207723Y-69829594D01*
X168205553Y-69898561D01*
X168090777Y-69898561D01*
X168125893Y-69778420D01*
X168194732Y-69361495D01*
X168220104Y-68940616D01*
X168201594Y-68545947D01*
X168138785Y-68207650D01*
X168031261Y-67955890D01*
X167972685Y-67846862D01*
X167940394Y-67734395D01*
X167926244Y-67665527D01*
X167874625Y-67539556D01*
X168193913Y-67539556D01*
X168226855Y-67818965D01*
X168352606Y-68058254D01*
X168477420Y-68167381D01*
X168647332Y-68243840D01*
X168804219Y-68254841D01*
X168908408Y-68190913D01*
X168916036Y-68137141D01*
X168899869Y-67981958D01*
X168858650Y-67765272D01*
X168799992Y-67521066D01*
X168731511Y-67283321D01*
X168660822Y-67086021D01*
X168594447Y-66947556D01*
X168537972Y-66903522D01*
X168468036Y-66940374D01*
X168390301Y-67016799D01*
X168249741Y-67259132D01*
X168193913Y-67539556D01*
X167874625Y-67539556D01*
X167856072Y-67494280D01*
X167740952Y-67272107D01*
X167596420Y-67030788D01*
X167502504Y-66884297D01*
X167479953Y-66925039D01*
X167448206Y-67101907D01*
X167433383Y-67334924D01*
X167435329Y-67591587D01*
X167449829Y-67785219D01*
X167453886Y-67839393D01*
X167488898Y-68045839D01*
X167540210Y-68178423D01*
X167594851Y-68262487D01*
X167599320Y-68321363D01*
X167517948Y-68353685D01*
X167483643Y-68363597D01*
X167431568Y-68400063D01*
X167432902Y-68480219D01*
X167483213Y-68640683D01*
X167514389Y-68748585D01*
X167564329Y-68998927D01*
X167593959Y-69254104D01*
X167609206Y-69398282D01*
X167632468Y-69515178D01*
X167655603Y-69631436D01*
X167716070Y-69804415D01*
X167765710Y-69951197D01*
X167793285Y-70032735D01*
X167797556Y-70158867D01*
X167803863Y-70345109D01*
X167718391Y-70633952D01*
X167661187Y-70722185D01*
X167489255Y-70890964D01*
X167283311Y-71016445D01*
X167091078Y-71065776D01*
X167084203Y-71065995D01*
X166971720Y-71107384D01*
X166951131Y-71114960D01*
X166813160Y-71223613D01*
X166802335Y-71235038D01*
X166425543Y-71542791D01*
X165979126Y-71764152D01*
X165487013Y-71895067D01*
X164973130Y-71931478D01*
X164461405Y-71869330D01*
X163975766Y-71704568D01*
X163805625Y-71613812D01*
X163478080Y-71391252D01*
X163159261Y-71119954D01*
X163136431Y-71097716D01*
X163224826Y-71097716D01*
X163433154Y-71273013D01*
X163677186Y-71449468D01*
X164102104Y-71667792D01*
X164549508Y-71808967D01*
X164899203Y-71863608D01*
X165275357Y-71860532D01*
X165673779Y-71782315D01*
X165679067Y-71780888D01*
X166037923Y-71663012D01*
X166326563Y-71513538D01*
X166599160Y-71304493D01*
X166823654Y-71107384D01*
X166646925Y-71033762D01*
X166533564Y-70997144D01*
X166424990Y-71013898D01*
X166290653Y-71109188D01*
X166262288Y-71132303D01*
X165860754Y-71379799D01*
X165428711Y-71513502D01*
X164984452Y-71532452D01*
X164546267Y-71435692D01*
X164132448Y-71222263D01*
X163994607Y-71131120D01*
X163846942Y-71057838D01*
X163708098Y-71037197D01*
X163525568Y-71054697D01*
X163224826Y-71097716D01*
X163136431Y-71097716D01*
X162969261Y-70934884D01*
X162834119Y-70782498D01*
X162746025Y-70638781D01*
X162681446Y-70464752D01*
X162616849Y-70221428D01*
X162616833Y-70221363D01*
X162513632Y-69657792D01*
X162512146Y-69582290D01*
X162569248Y-69582290D01*
X162581624Y-69706486D01*
X162584117Y-69712064D01*
X162603702Y-69702657D01*
X162610464Y-69595813D01*
X162610051Y-69576385D01*
X162599220Y-69493289D01*
X162579306Y-69518801D01*
X162569248Y-69582290D01*
X162512146Y-69582290D01*
X162503879Y-69162265D01*
X162587282Y-68719950D01*
X162624202Y-68599911D01*
X162667420Y-68457711D01*
X162684545Y-68398799D01*
X162652880Y-68384481D01*
X162544458Y-68350850D01*
X162478107Y-68330361D01*
X162442256Y-68293270D01*
X162514567Y-68226157D01*
X162525636Y-68217406D01*
X162591486Y-68121736D01*
X162566281Y-67985471D01*
X162493825Y-67861149D01*
X162348776Y-67775512D01*
X162115502Y-67750246D01*
X162090161Y-67750692D01*
X161949553Y-67790749D01*
X161866903Y-67919848D01*
X161833126Y-68065395D01*
X161837063Y-68227479D01*
X161843828Y-68317027D01*
X161793753Y-68391491D01*
X161762621Y-68423407D01*
X161727427Y-68574238D01*
X161715658Y-68847083D01*
X161715517Y-69276691D01*
X161613552Y-69276691D01*
X161632136Y-68851712D01*
X161652956Y-68375571D01*
X161480912Y-68375716D01*
X161345908Y-68350567D01*
X161313503Y-68287445D01*
X161395804Y-68206926D01*
X161402267Y-68201892D01*
X161462894Y-68109826D01*
X161554010Y-67928144D01*
X161664404Y-67680492D01*
X161699185Y-67595354D01*
X161997045Y-67595354D01*
X161999308Y-67599590D01*
X162073424Y-67617751D01*
X162219702Y-67625123D01*
X162256246Y-67624378D01*
X162377270Y-67606283D01*
X162409265Y-67571575D01*
X162367563Y-67485054D01*
X162308812Y-67340858D01*
X162241452Y-67163689D01*
X162119248Y-67364637D01*
X162099224Y-67397967D01*
X162026469Y-67527649D01*
X161997045Y-67595354D01*
X161699185Y-67595354D01*
X161782867Y-67390517D01*
X161806823Y-67329751D01*
X161920046Y-67053539D01*
X161930905Y-67028922D01*
X162372414Y-67028922D01*
X162374634Y-67050322D01*
X162413274Y-67185176D01*
X162488211Y-67385754D01*
X162565513Y-67571575D01*
X162584060Y-67616160D01*
X162685436Y-67840498D01*
X162776952Y-68022870D01*
X162843224Y-68127381D01*
X162915741Y-68234886D01*
X162926133Y-68335523D01*
X162851529Y-68375862D01*
X162808874Y-68397080D01*
X162733397Y-68524810D01*
X162658290Y-68756696D01*
X162588435Y-69079680D01*
X162546174Y-69314285D01*
X162803382Y-69314285D01*
X162865667Y-69316152D01*
X163004991Y-69338110D01*
X163060591Y-69376847D01*
X163037129Y-69413209D01*
X162935468Y-69439409D01*
X162901535Y-69441386D01*
X162852286Y-69467002D01*
X162824829Y-69542413D01*
X162820600Y-69595813D01*
X162812927Y-69692716D01*
X162810345Y-69943008D01*
X162814826Y-70129836D01*
X162859816Y-70481590D01*
X162953115Y-70718182D01*
X163094675Y-70839463D01*
X163241167Y-70867880D01*
X163443218Y-70868632D01*
X163606819Y-70837287D01*
X163634270Y-70812857D01*
X163628503Y-70721458D01*
X163552957Y-70549588D01*
X163487901Y-70393410D01*
X163406620Y-70043502D01*
X163403157Y-69985141D01*
X163478372Y-69985141D01*
X163600052Y-70441363D01*
X163641295Y-70536377D01*
X163722777Y-70662777D01*
X163787188Y-70666415D01*
X163834032Y-70548183D01*
X163862814Y-70308976D01*
X163873038Y-69949685D01*
X163873065Y-69918871D01*
X163868810Y-69690763D01*
X163851407Y-69556578D01*
X163813760Y-69488206D01*
X163748769Y-69457536D01*
X163740255Y-69455259D01*
X163633366Y-69407541D01*
X163638564Y-69361936D01*
X163743657Y-69327749D01*
X163936453Y-69314285D01*
X164049132Y-69318507D01*
X164192995Y-69341159D01*
X164249261Y-69376847D01*
X164247443Y-69391801D01*
X164186700Y-69439409D01*
X164178171Y-69443495D01*
X164149836Y-69531038D01*
X164130984Y-69716234D01*
X164124138Y-69977368D01*
X164120295Y-70180298D01*
X164088420Y-70506216D01*
X164022974Y-70728514D01*
X163985665Y-70815788D01*
X163964069Y-70942743D01*
X164014663Y-71047901D01*
X164152294Y-71153541D01*
X164391811Y-71281942D01*
X164591494Y-71364335D01*
X165018343Y-71446021D01*
X165454753Y-71416822D01*
X165868661Y-71276846D01*
X165941300Y-71240496D01*
X166103772Y-71149935D01*
X166194233Y-71062410D01*
X166243022Y-70938194D01*
X166262802Y-70832228D01*
X166605492Y-70832228D01*
X166640176Y-70888038D01*
X166725166Y-70931107D01*
X166882527Y-70938218D01*
X166998953Y-70857428D01*
X167143034Y-70857428D01*
X167168589Y-70877842D01*
X167244174Y-70843399D01*
X167339037Y-70760961D01*
X167352172Y-70744927D01*
X167429307Y-70592137D01*
X167478244Y-70401232D01*
X167511239Y-70158867D01*
X167379396Y-70436793D01*
X167335925Y-70525496D01*
X167245912Y-70693276D01*
X167179664Y-70796522D01*
X167143034Y-70857428D01*
X166998953Y-70857428D01*
X167032572Y-70834099D01*
X167187847Y-70612438D01*
X167214122Y-70565625D01*
X167363859Y-70232853D01*
X167424132Y-69951197D01*
X167395947Y-69730728D01*
X167280308Y-69581520D01*
X167078221Y-69513647D01*
X166876847Y-69494043D01*
X166876463Y-69702794D01*
X166876236Y-69826455D01*
X166853285Y-70080091D01*
X166717766Y-70497986D01*
X166700098Y-70536319D01*
X166623788Y-70723425D01*
X166605492Y-70832228D01*
X166262802Y-70832228D01*
X166280473Y-70737561D01*
X166318826Y-70597924D01*
X166372238Y-70511639D01*
X166418920Y-70507310D01*
X166438916Y-70602011D01*
X166441450Y-70640326D01*
X166477369Y-70690310D01*
X166543398Y-70646844D01*
X166623607Y-70525643D01*
X166702065Y-70342421D01*
X166758380Y-70146055D01*
X166799900Y-69909046D01*
X166810502Y-69702794D01*
X166789039Y-69557151D01*
X166734364Y-69501970D01*
X166680886Y-69510736D01*
X166544890Y-69579897D01*
X166426786Y-69685213D01*
X166376355Y-69787045D01*
X166369468Y-69826988D01*
X166310017Y-69877340D01*
X166300200Y-69875028D01*
X166265861Y-69799420D01*
X166263096Y-69642734D01*
X166277822Y-69528721D01*
X166324068Y-69430621D01*
X166417771Y-69401293D01*
X166429218Y-69400697D01*
X166613191Y-69378395D01*
X166695729Y-69321562D01*
X166687734Y-69206855D01*
X166600111Y-69010932D01*
X166507307Y-68849706D01*
X166224572Y-68519927D01*
X165872519Y-68285593D01*
X165467050Y-68158666D01*
X165332412Y-68140391D01*
X165292184Y-68146469D01*
X165282415Y-68147945D01*
X165329764Y-68188428D01*
X165389166Y-68241400D01*
X165406223Y-68313991D01*
X165388485Y-68327143D01*
X165276001Y-68343254D01*
X165103792Y-68336457D01*
X164916643Y-68311899D01*
X164759336Y-68274730D01*
X164676654Y-68230101D01*
X164635030Y-68209207D01*
X164511337Y-68235103D01*
X164340998Y-68318255D01*
X164151810Y-68441854D01*
X163971574Y-68589093D01*
X163828087Y-68743163D01*
X163605974Y-69113204D01*
X163480637Y-69540253D01*
X163478372Y-69985141D01*
X163403157Y-69985141D01*
X163384609Y-69672553D01*
X163428200Y-69341865D01*
X163562319Y-69012245D01*
X163787208Y-68682496D01*
X164071118Y-68400915D01*
X164388318Y-68192710D01*
X164469562Y-68165287D01*
X164760820Y-68165287D01*
X164812315Y-68188177D01*
X164845435Y-68183662D01*
X164854023Y-68146469D01*
X164844854Y-68138982D01*
X164770608Y-68146469D01*
X164760820Y-68165287D01*
X164469562Y-68165287D01*
X164713074Y-68083092D01*
X164937439Y-68046683D01*
X164937439Y-67710780D01*
X164937439Y-67374877D01*
X164311823Y-67374877D01*
X163686207Y-67374877D01*
X163686207Y-67781527D01*
X163686894Y-67873816D01*
X163698156Y-68064023D01*
X163727412Y-68161029D01*
X163780049Y-68188177D01*
X163823491Y-68197114D01*
X163873977Y-68266379D01*
X163854259Y-68301197D01*
X163745881Y-68326618D01*
X163529888Y-68323151D01*
X163317583Y-68298748D01*
X163203898Y-68261230D01*
X163198926Y-68216427D01*
X163310838Y-68170050D01*
X163385544Y-68130836D01*
X163425625Y-68035020D01*
X163435961Y-67849945D01*
X163433036Y-67760525D01*
X163411980Y-67618555D01*
X163377286Y-67562561D01*
X163336309Y-67586648D01*
X163237670Y-67688898D01*
X163116435Y-67844088D01*
X163031523Y-67959768D01*
X162938186Y-68079280D01*
X162893582Y-68125616D01*
X162868297Y-68113826D01*
X162887102Y-68033704D01*
X162985202Y-67889312D01*
X163154434Y-67694157D01*
X163183804Y-67662665D01*
X163324338Y-67501592D01*
X163399667Y-67373486D01*
X163429890Y-67230378D01*
X163435107Y-67024300D01*
X163426925Y-66742338D01*
X163397590Y-66539793D01*
X163339925Y-66409552D01*
X163246730Y-66324883D01*
X163228905Y-66314610D01*
X163158027Y-66298327D01*
X163070405Y-66331802D01*
X162942371Y-66428181D01*
X162750255Y-66600609D01*
X162695395Y-66652231D01*
X162530744Y-66818543D01*
X162415692Y-66952485D01*
X162372414Y-67028922D01*
X161930905Y-67028922D01*
X162018908Y-66829424D01*
X162093486Y-66679070D01*
X162133861Y-66624138D01*
X162138300Y-66624316D01*
X162185687Y-66671059D01*
X162192873Y-66703821D01*
X162243298Y-66807504D01*
X162283130Y-66835007D01*
X162361031Y-66809661D01*
X162490211Y-66714094D01*
X162687903Y-66537853D01*
X162704746Y-66522338D01*
X162914329Y-66344387D01*
X163073976Y-66237795D01*
X163167183Y-66213723D01*
X163225199Y-66226696D01*
X163389437Y-66242570D01*
X163597481Y-66248768D01*
X163635904Y-66249131D01*
X163825037Y-66265410D01*
X163925357Y-66300036D01*
X163924807Y-66344931D01*
X163811330Y-66392019D01*
X163763967Y-66410018D01*
X163714542Y-66468613D01*
X163691735Y-66590299D01*
X163686207Y-66805965D01*
X163690058Y-66982221D01*
X163702285Y-67130296D01*
X163719980Y-67187192D01*
X163734173Y-67183965D01*
X163749824Y-67177494D01*
X163905173Y-67177494D01*
X164421306Y-67182343D01*
X164580570Y-67183192D01*
X164773946Y-67178298D01*
X164881329Y-67160337D01*
X164927550Y-67123522D01*
X164937439Y-67062069D01*
X164891329Y-66973743D01*
X164748258Y-66940482D01*
X164519863Y-66969924D01*
X164217980Y-67062069D01*
X163905173Y-67177494D01*
X163749824Y-67177494D01*
X163833828Y-67142763D01*
X163985867Y-67069310D01*
X164092923Y-67022165D01*
X164330247Y-66940894D01*
X164414382Y-66919235D01*
X165182555Y-66919235D01*
X165187243Y-67062069D01*
X165197509Y-67374877D01*
X165200760Y-67473925D01*
X165218966Y-68028614D01*
X165481941Y-68073355D01*
X165676696Y-68119465D01*
X166069185Y-68302368D01*
X166403372Y-68588996D01*
X166665122Y-68968652D01*
X166675860Y-68989072D01*
X166791930Y-69184355D01*
X166889525Y-69285327D01*
X166989437Y-69314137D01*
X166992902Y-69314168D01*
X167150754Y-69344540D01*
X167327549Y-69414732D01*
X167521790Y-69515178D01*
X167484152Y-69112124D01*
X167445329Y-68816661D01*
X167376642Y-68565760D01*
X167280230Y-68421833D01*
X167152025Y-68375862D01*
X167083270Y-68369828D01*
X166984436Y-68324935D01*
X166970528Y-68261016D01*
X167058238Y-68207950D01*
X167081319Y-68201712D01*
X167161179Y-68167502D01*
X167173056Y-68112188D01*
X167111244Y-68012231D01*
X166970038Y-67844088D01*
X166885426Y-67748995D01*
X166790658Y-67660492D01*
X166754147Y-67653833D01*
X166968521Y-67653833D01*
X167000106Y-67746762D01*
X167016568Y-67776340D01*
X167104458Y-67889421D01*
X167166289Y-67893220D01*
X167189655Y-67785219D01*
X167189647Y-67781967D01*
X167161026Y-67659745D01*
X167062331Y-67625123D01*
X167031328Y-67625877D01*
X166968521Y-67653833D01*
X166754147Y-67653833D01*
X166732615Y-67649906D01*
X166685596Y-67704641D01*
X166665497Y-67734036D01*
X166585804Y-67783568D01*
X166532872Y-67733199D01*
X166536073Y-67602911D01*
X166540979Y-67507157D01*
X166455815Y-67358889D01*
X166297340Y-67248979D01*
X166039318Y-67124082D01*
X165748041Y-67020790D01*
X165472316Y-66958951D01*
X165182555Y-66919235D01*
X164414382Y-66919235D01*
X164577710Y-66877189D01*
X164771850Y-66833214D01*
X164883373Y-66788084D01*
X164928805Y-66723301D01*
X164937439Y-66617739D01*
X164913791Y-66482095D01*
X164843596Y-66396515D01*
X164754695Y-66344450D01*
X164767712Y-66295678D01*
X164884473Y-66261592D01*
X165093843Y-66248768D01*
X165137432Y-66249223D01*
X165326704Y-66265754D01*
X165427038Y-66300306D01*
X165426412Y-66345016D01*
X165312808Y-66392019D01*
X165309746Y-66392840D01*
X165215488Y-66462288D01*
X165187685Y-66617089D01*
X165191054Y-66692422D01*
X165235643Y-66796318D01*
X165359729Y-66844756D01*
X165478506Y-66870073D01*
X165821145Y-66960020D01*
X166107727Y-67070338D01*
X166391594Y-67220445D01*
X166576173Y-67319541D01*
X166798795Y-67418550D01*
X166970288Y-67472771D01*
X167189655Y-67513925D01*
X167189655Y-67162874D01*
X167189655Y-66811822D01*
X166939939Y-66811822D01*
X166896962Y-66812522D01*
X166716604Y-66845324D01*
X166612082Y-66936946D01*
X166597309Y-66959851D01*
X166511066Y-67051540D01*
X166457392Y-67022734D01*
X166438916Y-66874384D01*
X166438916Y-66686699D01*
X166853227Y-66686699D01*
X166883355Y-66686678D01*
X167088841Y-66683237D01*
X167192879Y-66669171D01*
X167216735Y-66637705D01*
X167181675Y-66582064D01*
X167176679Y-66576097D01*
X167020238Y-66436246D01*
X166783757Y-66275305D01*
X166503027Y-66113928D01*
X166213840Y-65972767D01*
X165951987Y-65872475D01*
X165638210Y-65796482D01*
X165084973Y-65742661D01*
X164514047Y-65772821D01*
X163964855Y-65883778D01*
X163476819Y-66072349D01*
X163411736Y-66103810D01*
X163274301Y-66157227D01*
X163205119Y-66163903D01*
X163211430Y-66134208D01*
X163306770Y-66066269D01*
X163484364Y-65978070D01*
X163722387Y-65880090D01*
X163999015Y-65782803D01*
X164241186Y-65703652D01*
X164248453Y-65700806D01*
X165722769Y-65700806D01*
X166097101Y-65836349D01*
X166243402Y-65895340D01*
X166541720Y-66042761D01*
X166840573Y-66218798D01*
X167100664Y-66399445D01*
X167282698Y-66560693D01*
X167378688Y-66637705D01*
X167384997Y-66642767D01*
X167512159Y-66686699D01*
X167597646Y-66705595D01*
X167620301Y-66767850D01*
X167533744Y-66834446D01*
X167528781Y-66836823D01*
X167509420Y-66871803D01*
X167476093Y-66843103D01*
X167502504Y-66884297D01*
X167509420Y-66871803D01*
X167612804Y-66960837D01*
X167712215Y-67067660D01*
X167786609Y-67195443D01*
X167794033Y-67217498D01*
X167848171Y-67302076D01*
X167913292Y-67269356D01*
X167996440Y-67116695D01*
X168107625Y-66951426D01*
X168261563Y-66819528D01*
X168271026Y-66814046D01*
X168273980Y-66811822D01*
X168644101Y-66811822D01*
X168785280Y-67202832D01*
X168850303Y-67396931D01*
X168924414Y-67654239D01*
X168970699Y-67859729D01*
X168998497Y-67996240D01*
X169048327Y-68104559D01*
X169116301Y-68096051D01*
X169212884Y-67975728D01*
X169324920Y-67744623D01*
X169373431Y-67473785D01*
X169343240Y-67220722D01*
X169241832Y-67009798D01*
X169076690Y-66865377D01*
X168855302Y-66811822D01*
X168644101Y-66811822D01*
X168273980Y-66811822D01*
X168390874Y-66723828D01*
X168440491Y-66646660D01*
X168418118Y-66576493D01*
X168323274Y-66422405D01*
X168171460Y-66220533D01*
X167981626Y-65991939D01*
X167772724Y-65757681D01*
X167563704Y-65538820D01*
X167373516Y-65356417D01*
X167221111Y-65231530D01*
X167125441Y-65185221D01*
X167114338Y-65191325D01*
X167103236Y-65269784D01*
X167119308Y-65398069D01*
X167153527Y-65524234D01*
X167196868Y-65596330D01*
X167233126Y-65623456D01*
X167249191Y-65687205D01*
X167157547Y-65731609D01*
X166970690Y-65748276D01*
X166845523Y-65744393D01*
X166716840Y-65717136D01*
X166707218Y-65661583D01*
X166814286Y-65575110D01*
X166902680Y-65477432D01*
X166939409Y-65280140D01*
X166933716Y-65179264D01*
X166880120Y-65055911D01*
X166740473Y-64960438D01*
X166541537Y-64857564D01*
X166132153Y-65279185D01*
X165722769Y-65700806D01*
X164248453Y-65700806D01*
X164436984Y-65626971D01*
X164551778Y-65545539D01*
X164605726Y-65434349D01*
X164618984Y-65268392D01*
X164611708Y-65022661D01*
X164606153Y-64871779D01*
X164884511Y-64871779D01*
X164894091Y-65086848D01*
X164916953Y-65302713D01*
X164949128Y-65477404D01*
X164986646Y-65568950D01*
X165031791Y-65593681D01*
X165170430Y-65631281D01*
X165342426Y-65657253D01*
X165496333Y-65664819D01*
X165580711Y-65647204D01*
X165585600Y-65640268D01*
X165607721Y-65538012D01*
X165620312Y-65357591D01*
X165623492Y-65138617D01*
X165617377Y-64920701D01*
X165605600Y-64784186D01*
X165757244Y-64784186D01*
X165762677Y-64963166D01*
X165774304Y-65138617D01*
X165782020Y-65255052D01*
X166022645Y-65008010D01*
X166230990Y-64794108D01*
X166664169Y-64794108D01*
X166729064Y-64855173D01*
X166768268Y-64882636D01*
X166873940Y-64927713D01*
X166925690Y-64872315D01*
X166939409Y-64705104D01*
X166939409Y-64475233D01*
X166779669Y-64625302D01*
X166775640Y-64629090D01*
X166676794Y-64731919D01*
X166670897Y-64760967D01*
X166664169Y-64794108D01*
X166230990Y-64794108D01*
X166263270Y-64760967D01*
X166034094Y-64685332D01*
X165990784Y-64671759D01*
X165847381Y-64638432D01*
X165774126Y-64640488D01*
X165765582Y-64664242D01*
X165757244Y-64784186D01*
X165605600Y-64784186D01*
X165602086Y-64743455D01*
X165577737Y-64646491D01*
X165549149Y-64622941D01*
X165420528Y-64572861D01*
X165236682Y-64533486D01*
X165116268Y-64517082D01*
X164993288Y-64515219D01*
X164933707Y-64556668D01*
X164900204Y-64654896D01*
X164892181Y-64699479D01*
X164884511Y-64871779D01*
X164606153Y-64871779D01*
X164593350Y-64524028D01*
X164189827Y-64588738D01*
X163786303Y-64653448D01*
X163715031Y-64828820D01*
X163564211Y-65199930D01*
X163507184Y-65335164D01*
X163408122Y-65546745D01*
X163326355Y-65692697D01*
X163275429Y-65747343D01*
X163230882Y-65711737D01*
X163152391Y-65587298D01*
X163066122Y-65404187D01*
X162998026Y-65250562D01*
X162925890Y-65113074D01*
X162881730Y-65060098D01*
X162818801Y-65080715D01*
X162677364Y-65164109D01*
X162504111Y-65287188D01*
X162333547Y-65423494D01*
X162200180Y-65546570D01*
X162138515Y-65629957D01*
X162106576Y-65696108D01*
X162022483Y-65748276D01*
X161947984Y-65789959D01*
X161823824Y-65907190D01*
X161680336Y-66073476D01*
X161579481Y-66207362D01*
X161358135Y-66550190D01*
X161171560Y-66907183D01*
X161026047Y-67258985D01*
X160928175Y-67585279D01*
X160927886Y-67586241D01*
X160883368Y-67869594D01*
X160898782Y-68089690D01*
X160980419Y-68227173D01*
X161030196Y-68267695D01*
X161046044Y-68314241D01*
X160949138Y-68350850D01*
X160892807Y-68371719D01*
X160838120Y-68428454D01*
X160813866Y-68543782D01*
X160808375Y-68750868D01*
X160745484Y-68750868D01*
X160745238Y-68680271D01*
X160738092Y-68507558D01*
X160715595Y-68416823D01*
X160668963Y-68381709D01*
X160589409Y-68375862D01*
X160577516Y-68375684D01*
X160460312Y-68343219D01*
X160439292Y-68277361D01*
X160526847Y-68210801D01*
X160535616Y-68206849D01*
X160599794Y-68108801D01*
X160620690Y-67899957D01*
X160620687Y-67895259D01*
X160611555Y-67723918D01*
X160575114Y-67644505D01*
X160497009Y-67625123D01*
X160494780Y-67625150D01*
X160376915Y-67676681D01*
X160266493Y-67797167D01*
X160163648Y-67947693D01*
X160036929Y-68108114D01*
X159980486Y-68183862D01*
X159944216Y-68287991D01*
X159937362Y-68441501D01*
X159870267Y-68441501D01*
X159869951Y-68321167D01*
X159635345Y-68354262D01*
X159400739Y-68387358D01*
X159633995Y-68178285D01*
X159685516Y-68131179D01*
X159804683Y-67997392D01*
X159857476Y-67859112D01*
X159866309Y-67727960D01*
X159944134Y-67727960D01*
X159953604Y-67772917D01*
X159974950Y-67810160D01*
X160012563Y-67729489D01*
X160055497Y-67585279D01*
X160047212Y-67516053D01*
X159989207Y-67543404D01*
X159957094Y-67595933D01*
X159944134Y-67727960D01*
X159866309Y-67727960D01*
X159871128Y-67656404D01*
X159870523Y-67561105D01*
X159857668Y-67337850D01*
X159833293Y-67168357D01*
X159833208Y-67166222D01*
X160120197Y-67166222D01*
X160142169Y-67316428D01*
X160241207Y-67435237D01*
X160326612Y-67470037D01*
X160491454Y-67500000D01*
X160540190Y-67495931D01*
X160592395Y-67457730D01*
X160615487Y-67354352D01*
X160620690Y-67155911D01*
X160617618Y-66965688D01*
X160597841Y-66859697D01*
X160545694Y-66818664D01*
X160445517Y-66811822D01*
X160269756Y-66842888D01*
X160155985Y-66957395D01*
X160120197Y-67166222D01*
X159833208Y-67166222D01*
X159826991Y-67009837D01*
X159918613Y-66855549D01*
X160001908Y-66736890D01*
X160045180Y-66657735D01*
X160182759Y-66657735D01*
X160183102Y-66658884D01*
X160248408Y-66672941D01*
X160404822Y-66682911D01*
X160620690Y-66686699D01*
X160715866Y-66687191D01*
X160929183Y-66696373D01*
X161033208Y-66721190D01*
X161039649Y-66766886D01*
X160960218Y-66838701D01*
X160891563Y-66948254D01*
X160882016Y-67154820D01*
X160882106Y-67155911D01*
X160902217Y-67398986D01*
X161023172Y-67059692D01*
X161046128Y-67000726D01*
X161157527Y-66767526D01*
X161309157Y-66496283D01*
X161475098Y-66234337D01*
X161806068Y-65748276D01*
X161343716Y-65748276D01*
X161204157Y-65747793D01*
X161020377Y-65740470D01*
X160915942Y-65716584D01*
X160860920Y-65666439D01*
X160825384Y-65580337D01*
X160769404Y-65412398D01*
X160595410Y-65721101D01*
X160574525Y-65758874D01*
X160561846Y-65783653D01*
X160473878Y-65955574D01*
X160369232Y-66178188D01*
X160275733Y-66392338D01*
X160208527Y-66563646D01*
X160182759Y-66657735D01*
X160045180Y-66657735D01*
X160110001Y-66539160D01*
X160214575Y-66311330D01*
X160215187Y-66309857D01*
X160308797Y-66094899D01*
X160392125Y-65921285D01*
X160447197Y-65826478D01*
X160463401Y-65783653D01*
X160400972Y-65756029D01*
X160232127Y-65748276D01*
X160143651Y-65746764D01*
X159962488Y-65724370D01*
X159902767Y-65674916D01*
X159963870Y-65598058D01*
X159995568Y-65563084D01*
X160053216Y-65430837D01*
X160087446Y-65263863D01*
X160090341Y-65112369D01*
X160053985Y-65026561D01*
X159971059Y-65010439D01*
X159837707Y-65082372D01*
X159691915Y-65250328D01*
X159543630Y-65499465D01*
X159402805Y-65814944D01*
X159279388Y-66181921D01*
X159267891Y-66222430D01*
X159207452Y-66461582D01*
X159182391Y-66616126D01*
X159193670Y-66674556D01*
X159242253Y-66625365D01*
X159276264Y-66589078D01*
X159325823Y-66616445D01*
X159392108Y-66749868D01*
X159442590Y-66893989D01*
X159450223Y-67005135D01*
X159396465Y-67020023D01*
X159286627Y-66929602D01*
X159154440Y-66787716D01*
X159113974Y-66932682D01*
X159111782Y-66940533D01*
X159091049Y-67049739D01*
X159070364Y-67300449D01*
X159063083Y-67620049D01*
X158955279Y-67620049D01*
X158956771Y-67566622D01*
X158978788Y-67296675D01*
X159000494Y-67095203D01*
X159011438Y-66932682D01*
X158999588Y-66848408D01*
X158960150Y-66816686D01*
X158888330Y-66811822D01*
X158846148Y-66813110D01*
X158796948Y-66830173D01*
X158766757Y-66884847D01*
X158750934Y-66999008D01*
X158744842Y-67194535D01*
X158743967Y-67456207D01*
X158743843Y-67493306D01*
X158492865Y-67493306D01*
X158493596Y-67456207D01*
X158493596Y-66811822D01*
X158337192Y-66811822D01*
X158180788Y-66811822D01*
X157814760Y-66811822D01*
X157806377Y-66763709D01*
X157807223Y-66727216D01*
X157840998Y-66651041D01*
X157950292Y-66658115D01*
X157962359Y-66661055D01*
X158037606Y-66666910D01*
X158087201Y-66624067D01*
X158126100Y-66507545D01*
X158169258Y-66292364D01*
X158177735Y-66246327D01*
X158220100Y-66003323D01*
X158233903Y-65855905D01*
X158214033Y-65780184D01*
X158155376Y-65752271D01*
X158052821Y-65748276D01*
X157937433Y-65729770D01*
X157751229Y-65628951D01*
X157610727Y-65471704D01*
X157572878Y-65350542D01*
X157826038Y-65350542D01*
X157903319Y-65502513D01*
X157975938Y-65561485D01*
X158121583Y-65615421D01*
X158257838Y-65611478D01*
X158336654Y-65544950D01*
X158359605Y-65480597D01*
X158417200Y-65322806D01*
X158491063Y-65122660D01*
X158544833Y-64977035D01*
X158597443Y-64824804D01*
X158608310Y-64760110D01*
X158578540Y-64764545D01*
X158509237Y-64819698D01*
X158474685Y-64845444D01*
X158322583Y-64935301D01*
X158135268Y-65025949D01*
X158037412Y-65073652D01*
X157871516Y-65205987D01*
X157826038Y-65350542D01*
X157572878Y-65350542D01*
X157555173Y-65293865D01*
X157560841Y-65219681D01*
X157630780Y-65052977D01*
X157793022Y-64902457D01*
X158063361Y-64751259D01*
X158196098Y-64685308D01*
X158327298Y-64600942D01*
X158386155Y-64516249D01*
X158399754Y-64403202D01*
X158399751Y-64399829D01*
X158386255Y-64276253D01*
X158321645Y-64219473D01*
X158168917Y-64196325D01*
X158058336Y-64192579D01*
X157929905Y-64228924D01*
X157831169Y-64340301D01*
X157773490Y-64414810D01*
X157694699Y-64454452D01*
X157654042Y-64383162D01*
X157661530Y-64208706D01*
X157683222Y-64102485D01*
X157729027Y-64042596D01*
X157831433Y-64022785D01*
X158024637Y-64025828D01*
X158195862Y-64040509D01*
X158459167Y-64114026D01*
X158624159Y-64242196D01*
X158681281Y-64419291D01*
X158681360Y-64429748D01*
X158692392Y-64491717D01*
X158729641Y-64476413D01*
X158803965Y-64372778D01*
X158926218Y-64169750D01*
X159100780Y-63886463D01*
X159643611Y-63158514D01*
X160266953Y-62518310D01*
X160961862Y-61972280D01*
X161719391Y-61526856D01*
X162530594Y-61188468D01*
X163386524Y-60963547D01*
X163826111Y-60903885D01*
X164371098Y-60873244D01*
X164942593Y-60877106D01*
X165492085Y-60915039D01*
X165971061Y-60986609D01*
X166327850Y-61070786D01*
X167168091Y-61358052D01*
X167956414Y-61757686D01*
X168685984Y-62265862D01*
X169349969Y-62878752D01*
X169462474Y-63000355D01*
X169694319Y-63268143D01*
X169906548Y-63534566D01*
X170086246Y-63781385D01*
X170220497Y-63990360D01*
X170296387Y-64143253D01*
X170301000Y-64221824D01*
X170297969Y-64222711D01*
X170246525Y-64172077D01*
X170152042Y-64041981D01*
X170032408Y-63856737D01*
X169931959Y-63705600D01*
X169655729Y-63352847D01*
X169315998Y-62977905D01*
X168941948Y-62610235D01*
X168562761Y-62279296D01*
X168207618Y-62014548D01*
X167724734Y-61724414D01*
X166945778Y-61363426D01*
X166126109Y-61100504D01*
X165904164Y-61049766D01*
X165656429Y-61008966D01*
X165382554Y-60983461D01*
X165049601Y-60970312D01*
X164624631Y-60966582D01*
X164499555Y-60967057D01*
X163940295Y-60985341D01*
X163457215Y-61035578D01*
X163011345Y-61125194D01*
X162563715Y-61261613D01*
X162075355Y-61452259D01*
X161955629Y-61504562D01*
X161241772Y-61890711D01*
X160568416Y-62379682D01*
X159952261Y-62954266D01*
X159410005Y-63597252D01*
X158958346Y-64291432D01*
X158736698Y-64760110D01*
X158613982Y-65019595D01*
X158581521Y-65105537D01*
X158507271Y-65319383D01*
X158462699Y-65475327D01*
X158456509Y-65544358D01*
X158501283Y-65519078D01*
X158563858Y-65412272D01*
X158626940Y-65298907D01*
X158691844Y-65255520D01*
X158729251Y-65328589D01*
X158731799Y-65513670D01*
X158726622Y-65579010D01*
X158703523Y-65711763D01*
X158651305Y-65761516D01*
X158545929Y-65760148D01*
X158499326Y-65756075D01*
X158414506Y-65769290D01*
X158358021Y-65834555D01*
X158315482Y-65975932D01*
X158272504Y-66217487D01*
X158265696Y-66258982D01*
X158231622Y-66445461D01*
X158202390Y-66577216D01*
X158201916Y-66578968D01*
X158200877Y-66635910D01*
X158252110Y-66668486D01*
X158379870Y-66683236D01*
X158608410Y-66686699D01*
X159044463Y-66686699D01*
X159176863Y-66250803D01*
X159180001Y-66240477D01*
X159250919Y-66009577D01*
X159311370Y-65816958D01*
X159348568Y-65703389D01*
X159353789Y-65688260D01*
X159362650Y-65627934D01*
X159303592Y-65670074D01*
X159227404Y-65714636D01*
X159097651Y-65744921D01*
X158981714Y-65740024D01*
X158931527Y-65696286D01*
X158977236Y-65635679D01*
X159093115Y-65557816D01*
X159150538Y-65517913D01*
X159288767Y-65376091D01*
X159416292Y-65195606D01*
X159502928Y-65043724D01*
X159541272Y-64945185D01*
X159522943Y-64882517D01*
X159497426Y-64859467D01*
X159903794Y-64859467D01*
X159962220Y-64872414D01*
X159991505Y-64864753D01*
X160370444Y-64864753D01*
X160370572Y-64929287D01*
X160378566Y-65270181D01*
X160402630Y-65493391D01*
X160447855Y-65604989D01*
X160519338Y-65611049D01*
X160622173Y-65517643D01*
X160761453Y-65330842D01*
X160794234Y-65279187D01*
X160887161Y-65279187D01*
X160946566Y-65385256D01*
X161016528Y-65463793D01*
X161145776Y-65521755D01*
X161358273Y-65548055D01*
X161473207Y-65553606D01*
X161608497Y-65546902D01*
X161671370Y-65507519D01*
X161695597Y-65422932D01*
X161703826Y-65309044D01*
X161695540Y-65122592D01*
X161689150Y-65081914D01*
X161655426Y-65006731D01*
X161570475Y-64980950D01*
X161397894Y-64988128D01*
X161343603Y-64993535D01*
X161180089Y-65031661D01*
X161121182Y-65090382D01*
X161093007Y-65146682D01*
X160986244Y-65205915D01*
X160912312Y-65229970D01*
X160887161Y-65279187D01*
X160794234Y-65279187D01*
X160847631Y-65195045D01*
X160956135Y-64973724D01*
X160974911Y-64894822D01*
X161997045Y-64894822D01*
X161997045Y-65309044D01*
X161997045Y-65560332D01*
X162372049Y-65284270D01*
X162395072Y-65267374D01*
X162584277Y-65132495D01*
X162735395Y-65031348D01*
X162770123Y-65011629D01*
X163062808Y-65011629D01*
X163080744Y-65090903D01*
X163141010Y-65227764D01*
X163170568Y-65278193D01*
X163212485Y-65313297D01*
X163256997Y-65261273D01*
X163326343Y-65107719D01*
X163356719Y-65033324D01*
X163404599Y-64894247D01*
X163413221Y-64828820D01*
X163340214Y-64825267D01*
X163220935Y-64872547D01*
X163110527Y-64944026D01*
X163062808Y-65011629D01*
X162770123Y-65011629D01*
X162817509Y-64984722D01*
X162828634Y-64967652D01*
X162812410Y-64868602D01*
X162754863Y-64712040D01*
X162672123Y-64531644D01*
X162580324Y-64361092D01*
X162495597Y-64234063D01*
X162434075Y-64184236D01*
X162419364Y-64182425D01*
X162372414Y-64121675D01*
X162378795Y-64107651D01*
X162465955Y-64072988D01*
X162622660Y-64059113D01*
X162730804Y-64065951D01*
X162847607Y-64099528D01*
X162876983Y-64148341D01*
X162800456Y-64197959D01*
X162775837Y-64220373D01*
X162777920Y-64322763D01*
X162841017Y-64518024D01*
X162883362Y-64623710D01*
X162950619Y-64770585D01*
X162994438Y-64838913D01*
X163015154Y-64841422D01*
X163125727Y-64814311D01*
X163287092Y-64750954D01*
X163437834Y-64655454D01*
X163569055Y-64522562D01*
X163657901Y-64383040D01*
X163686257Y-64265558D01*
X163636007Y-64198784D01*
X163564831Y-64161236D01*
X163569272Y-64112349D01*
X163667670Y-64074384D01*
X163842611Y-64059113D01*
X163926745Y-64061984D01*
X164068221Y-64084364D01*
X164124138Y-64121675D01*
X164122671Y-64136342D01*
X164071619Y-64184236D01*
X164068788Y-64184520D01*
X164012446Y-64238483D01*
X163944624Y-64349289D01*
X163893485Y-64464116D01*
X163887190Y-64530147D01*
X163931395Y-64531225D01*
X164069260Y-64515417D01*
X164264902Y-64484563D01*
X164328214Y-64473124D01*
X164510350Y-64428814D01*
X164600425Y-64376556D01*
X164624631Y-64303141D01*
X164604777Y-64229069D01*
X164499508Y-64184236D01*
X164426783Y-64172505D01*
X164374384Y-64121675D01*
X164414256Y-64093421D01*
X164549811Y-64068611D01*
X164749754Y-64059113D01*
X164919274Y-64065758D01*
X165068139Y-64088351D01*
X165125123Y-64121675D01*
X165117038Y-64148002D01*
X165038578Y-64184236D01*
X164982154Y-64207687D01*
X164919311Y-64309359D01*
X164909835Y-64370059D01*
X164949687Y-64422359D01*
X165084059Y-64435337D01*
X165254613Y-64445879D01*
X165422291Y-64473914D01*
X165450030Y-64480733D01*
X165540555Y-64473712D01*
X165563054Y-64377254D01*
X165545014Y-64291348D01*
X165469212Y-64206860D01*
X165386306Y-64160567D01*
X165387168Y-64109536D01*
X165491743Y-64073052D01*
X165688178Y-64059113D01*
X165699724Y-64059150D01*
X165888420Y-64073872D01*
X165988803Y-64108852D01*
X165988681Y-64154784D01*
X165875862Y-64202363D01*
X165797840Y-64246657D01*
X165750739Y-64384369D01*
X165750861Y-64394901D01*
X165775076Y-64488815D01*
X165862405Y-64553267D01*
X166043217Y-64611880D01*
X166335694Y-64690106D01*
X166655159Y-64374610D01*
X166819338Y-64223322D01*
X167000117Y-64098254D01*
X167144701Y-64059113D01*
X167156759Y-64059194D01*
X167287387Y-64081663D01*
X167298746Y-64140874D01*
X167189655Y-64232279D01*
X167169968Y-64245562D01*
X167104746Y-64323210D01*
X167072924Y-64454664D01*
X167064532Y-64675220D01*
X167064532Y-64705104D01*
X167064532Y-65040021D01*
X167428237Y-65322463D01*
X167626083Y-65486665D01*
X168024053Y-65894327D01*
X168401691Y-66397091D01*
X168519655Y-66549339D01*
X168639081Y-66625822D01*
X168777129Y-66646660D01*
X168805550Y-66650950D01*
X168832247Y-66652915D01*
X169057411Y-66702845D01*
X169268836Y-66793720D01*
X169490993Y-66924796D01*
X169428015Y-66696265D01*
X169386873Y-66572441D01*
X169295664Y-66347363D01*
X169187931Y-66116607D01*
X169010825Y-65765481D01*
X168676440Y-65770315D01*
X168353610Y-65738486D01*
X168220294Y-65680809D01*
X169126533Y-65680809D01*
X169133665Y-65770217D01*
X169186369Y-65918930D01*
X169290504Y-66152914D01*
X169520559Y-66748072D01*
X169560805Y-66924796D01*
X169685827Y-67473785D01*
X169691002Y-67496508D01*
X169726093Y-68053670D01*
X169739139Y-68260804D01*
X169664616Y-69033597D01*
X169467077Y-69807525D01*
X169452037Y-69853368D01*
X169384986Y-70090106D01*
X169358653Y-70221428D01*
X169345471Y-70287168D01*
X169343981Y-70333083D01*
X169341621Y-70405787D01*
X169366756Y-70474128D01*
X169378302Y-70505523D01*
X169465627Y-70659359D01*
X169467144Y-70661423D01*
X169512832Y-70711270D01*
X169556564Y-70711272D01*
X169611917Y-70645478D01*
X169692469Y-70497941D01*
X169811797Y-70252709D01*
X170011277Y-69802567D01*
X170166727Y-69352856D01*
X170267350Y-68903784D01*
X170322109Y-68414484D01*
X170339965Y-67844088D01*
X170339730Y-67737095D01*
X170293707Y-66968453D01*
X170165176Y-66271889D01*
X169948118Y-65623039D01*
X169636510Y-64997537D01*
X169473153Y-64716010D01*
X169439002Y-64997537D01*
X169418757Y-65128437D01*
X169324710Y-65418338D01*
X169169261Y-65615752D01*
X169159112Y-65624741D01*
X169126533Y-65680809D01*
X168220294Y-65680809D01*
X168064119Y-65613242D01*
X167856701Y-65393797D01*
X167731872Y-65080723D01*
X167690148Y-64674594D01*
X167690148Y-64255857D01*
X167315436Y-64028232D01*
X166923221Y-63815103D01*
X166228636Y-63544118D01*
X165503114Y-63382266D01*
X164763765Y-63330237D01*
X164027699Y-63388718D01*
X163312027Y-63558397D01*
X162633859Y-63839963D01*
X162561946Y-63877017D01*
X162314314Y-64007458D01*
X162152082Y-64113809D01*
X162057245Y-64225895D01*
X162011796Y-64373542D01*
X161997732Y-64586576D01*
X161997679Y-64610463D01*
X161997045Y-64894822D01*
X160974911Y-64894822D01*
X160996059Y-64805951D01*
X160996669Y-64790276D01*
X161308867Y-64790276D01*
X161308877Y-64790480D01*
X161364647Y-64804169D01*
X161496552Y-64809852D01*
X161606441Y-64802101D01*
X161670944Y-64748815D01*
X161684237Y-64610463D01*
X161684237Y-64411073D01*
X161496552Y-64590886D01*
X161451414Y-64634707D01*
X161349536Y-64739179D01*
X161308867Y-64790276D01*
X160996669Y-64790276D01*
X160997608Y-64766160D01*
X161028960Y-64651140D01*
X161082856Y-64621933D01*
X161135689Y-64696967D01*
X161173223Y-64710041D01*
X161274608Y-64664764D01*
X161407370Y-64573081D01*
X161540540Y-64459433D01*
X161643151Y-64348262D01*
X161684237Y-64264011D01*
X161676105Y-64232498D01*
X161597447Y-64195915D01*
X161418350Y-64196279D01*
X161307085Y-64208672D01*
X161166709Y-64257841D01*
X161090707Y-64356281D01*
X161041356Y-64446892D01*
X160988325Y-64497044D01*
X160981901Y-64495106D01*
X160946637Y-64425552D01*
X160919148Y-64297297D01*
X160908417Y-64166680D01*
X160923427Y-64090038D01*
X160936186Y-64084823D01*
X161045187Y-64071692D01*
X161237240Y-64062546D01*
X161481183Y-64059113D01*
X161508571Y-64059095D01*
X161750609Y-64054622D01*
X161937311Y-64034899D01*
X162110259Y-63989299D01*
X162311036Y-63907193D01*
X162581224Y-63777954D01*
X162760561Y-63692174D01*
X163205850Y-63505761D01*
X163622246Y-63380741D01*
X164059657Y-63304183D01*
X164567990Y-63263154D01*
X164578219Y-63262661D01*
X165326385Y-63282367D01*
X166055370Y-63408477D01*
X166742404Y-63635339D01*
X167364716Y-63957302D01*
X167627586Y-64123244D01*
X167627586Y-63934775D01*
X167608107Y-63802020D01*
X167533744Y-63746305D01*
X167490574Y-63739247D01*
X167439902Y-63683744D01*
X167479773Y-63655490D01*
X167615328Y-63630679D01*
X167815271Y-63621182D01*
X167978671Y-63628262D01*
X168127959Y-63654000D01*
X168193279Y-63690149D01*
X168161276Y-63727736D01*
X168018596Y-63757790D01*
X167846552Y-63777586D01*
X167846552Y-64403202D01*
X167852191Y-64689634D01*
X167883284Y-65016792D01*
X167946212Y-65249234D01*
X168046229Y-65403763D01*
X168188589Y-65497179D01*
X168200334Y-65501860D01*
X168377075Y-65542698D01*
X168565326Y-65547317D01*
X168720590Y-65518501D01*
X168798370Y-65459033D01*
X168776226Y-65402450D01*
X168683010Y-65271383D01*
X168533098Y-65090300D01*
X168343117Y-64880339D01*
X168173896Y-64696133D01*
X168028341Y-64527956D01*
X167940249Y-64413915D01*
X167924372Y-64371921D01*
X167945473Y-64379978D01*
X168043174Y-64456296D01*
X168188688Y-64593445D01*
X168358620Y-64767078D01*
X168529578Y-64952849D01*
X168678167Y-65126413D01*
X168780995Y-65263423D01*
X168787317Y-65272978D01*
X168880580Y-65388058D01*
X168951767Y-65435468D01*
X168991771Y-65417492D01*
X169064423Y-65305492D01*
X169128521Y-65118605D01*
X169174207Y-64889131D01*
X169191626Y-64649375D01*
X169191465Y-64583718D01*
X169184351Y-64437221D01*
X169154728Y-64321739D01*
X169086450Y-64207060D01*
X168963368Y-64062973D01*
X168769335Y-63859266D01*
X168532147Y-63627365D01*
X167893884Y-63119634D01*
X167199664Y-62714780D01*
X166462111Y-62414535D01*
X165693846Y-62220634D01*
X164907492Y-62134808D01*
X164115673Y-62158791D01*
X163331009Y-62294317D01*
X162566124Y-62543118D01*
X161833640Y-62906928D01*
X161706464Y-62985631D01*
X161435479Y-63171674D01*
X161165284Y-63377700D01*
X160916601Y-63585920D01*
X160710153Y-63778546D01*
X160566664Y-63937789D01*
X160506856Y-64045859D01*
X160482092Y-64131124D01*
X160428654Y-64184236D01*
X160409113Y-64222981D01*
X160394409Y-64326681D01*
X160389035Y-64364581D01*
X160375443Y-64586716D01*
X160375384Y-64589982D01*
X160370444Y-64864753D01*
X159991505Y-64864753D01*
X160028355Y-64855113D01*
X160104661Y-64752505D01*
X160109848Y-64589982D01*
X160099021Y-64558688D01*
X160055455Y-64564995D01*
X159975897Y-64680169D01*
X159910618Y-64800427D01*
X159903794Y-64859467D01*
X159497426Y-64859467D01*
X159451459Y-64817943D01*
X159342294Y-64705847D01*
X159300675Y-64585373D01*
X159556554Y-64585373D01*
X159632217Y-64734778D01*
X159665967Y-64766236D01*
X159744982Y-64801994D01*
X159822884Y-64750545D01*
X159927410Y-64599142D01*
X159979326Y-64509796D01*
X160050990Y-64326681D01*
X160026507Y-64219285D01*
X159905700Y-64184236D01*
X159828403Y-64193322D01*
X159672993Y-64277712D01*
X159576261Y-64420706D01*
X159556554Y-64585373D01*
X159300675Y-64585373D01*
X159278929Y-64522425D01*
X159336306Y-64312978D01*
X159349075Y-64288908D01*
X159433547Y-64169645D01*
X159546625Y-64099915D01*
X159720286Y-64067233D01*
X159986509Y-64059113D01*
X160160642Y-64055859D01*
X160288410Y-64034237D01*
X160400754Y-63976497D01*
X160532004Y-63864887D01*
X160716491Y-63681654D01*
X161026451Y-63393285D01*
X161676385Y-62916072D01*
X162403923Y-62529335D01*
X163196577Y-62240333D01*
X163370780Y-62196254D01*
X163826898Y-62120167D01*
X164342296Y-62075709D01*
X164873964Y-62064406D01*
X165378891Y-62087787D01*
X165814065Y-62147378D01*
X166537630Y-62343254D01*
X167310013Y-62673539D01*
X168034159Y-63119009D01*
X168708915Y-63679054D01*
X168866633Y-63827210D01*
X169020094Y-63963154D01*
X169108499Y-64024897D01*
X169145167Y-64021058D01*
X169143418Y-63960259D01*
X169097305Y-63852181D01*
X168964476Y-63743194D01*
X168932036Y-63730466D01*
X168835239Y-63679112D01*
X168848118Y-63645354D01*
X168975673Y-63626832D01*
X169222907Y-63621182D01*
X169419897Y-63628669D01*
X169572101Y-63651051D01*
X169629557Y-63683744D01*
X169618969Y-63712524D01*
X169535714Y-63746305D01*
X169522618Y-63747319D01*
X169473889Y-63788506D01*
X169448909Y-63907150D01*
X169441872Y-64126788D01*
X169444420Y-64256718D01*
X169470287Y-64461585D01*
X169536799Y-64649375D01*
X169537786Y-64652161D01*
G37*
G36*
X173445813Y-65842118D02*
G01*
X173445813Y-66499015D01*
X174822168Y-66499015D01*
X176198522Y-66499015D01*
X176198522Y-65842118D01*
X176198522Y-65185221D01*
X175804093Y-65185221D01*
X175409663Y-65185221D01*
X175413083Y-64418842D01*
X175416503Y-63652463D01*
X177340271Y-63635918D01*
X179264040Y-63619374D01*
X179264040Y-64399312D01*
X179264040Y-65179251D01*
X178873030Y-65197877D01*
X178482020Y-65216502D01*
X178465569Y-67390517D01*
X178449118Y-69564532D01*
X178856579Y-69564532D01*
X179264040Y-69564532D01*
X179264040Y-70347456D01*
X179264040Y-71130379D01*
X177340271Y-71113835D01*
X175416503Y-71097290D01*
X175416503Y-70346551D01*
X175416503Y-69595813D01*
X175807512Y-69577187D01*
X176198522Y-69558561D01*
X176198522Y-68904650D01*
X176198522Y-68250739D01*
X174822168Y-68250739D01*
X173445813Y-68250739D01*
X173445813Y-68907635D01*
X173445813Y-69564532D01*
X173852463Y-69564532D01*
X174259113Y-69564532D01*
X174259113Y-70346551D01*
X174259113Y-71128571D01*
X172325743Y-71128571D01*
X170392372Y-71128571D01*
X170370693Y-70831404D01*
X170370587Y-70829931D01*
X170362569Y-70613727D01*
X170362211Y-70333452D01*
X170369598Y-70049384D01*
X170379236Y-69842819D01*
X170394618Y-69682195D01*
X170423701Y-69599550D01*
X170476912Y-69568967D01*
X170564679Y-69564532D01*
X170650562Y-69557567D01*
X170721898Y-69514448D01*
X170730506Y-69497572D01*
X170833601Y-69497572D01*
X170866053Y-69550019D01*
X170999218Y-69564532D01*
X171193596Y-69564532D01*
X171185374Y-68673029D01*
X171182667Y-68424861D01*
X171177871Y-68172655D01*
X171171086Y-68031277D01*
X171161338Y-67992334D01*
X171147651Y-68047432D01*
X171129050Y-68188177D01*
X171110086Y-68325746D01*
X171055280Y-68633309D01*
X170985245Y-68957603D01*
X170910515Y-69251701D01*
X170841623Y-69468678D01*
X170833601Y-69497572D01*
X170730506Y-69497572D01*
X170777013Y-69406393D01*
X170837605Y-69204803D01*
X170841055Y-69192134D01*
X170997449Y-68428786D01*
X171068517Y-67630573D01*
X171052805Y-66838198D01*
X170948857Y-66092364D01*
X170896853Y-65850581D01*
X170827439Y-65563922D01*
X170765285Y-65371729D01*
X170702491Y-65256331D01*
X170651122Y-65215804D01*
X170818227Y-65215804D01*
X170819234Y-65223266D01*
X170841733Y-65318911D01*
X170887756Y-65496222D01*
X170949269Y-65724039D01*
X171019605Y-66011048D01*
X171085476Y-66336952D01*
X171128731Y-66616240D01*
X171143716Y-66734540D01*
X171158315Y-66809453D01*
X171168852Y-66792593D01*
X171176254Y-66675624D01*
X171181452Y-66450207D01*
X171185374Y-66108005D01*
X171193596Y-65185221D01*
X171005912Y-65185221D01*
X171003896Y-65185223D01*
X170872696Y-65194314D01*
X170818227Y-65215804D01*
X170651122Y-65215804D01*
X170631157Y-65200053D01*
X170543382Y-65185221D01*
X170502827Y-65184179D01*
X170439314Y-65165127D01*
X170402788Y-65101169D01*
X170383022Y-64965583D01*
X170369789Y-64731650D01*
X170363732Y-64483384D01*
X170367048Y-64195525D01*
X170380296Y-63965271D01*
X170411577Y-63652463D01*
X172335345Y-63635918D01*
X174259113Y-63619374D01*
X174259113Y-64402298D01*
X174259113Y-65185221D01*
X173852463Y-65185221D01*
X173445813Y-65185221D01*
X173445813Y-65842118D01*
G37*
G36*
X157625615Y-69375651D02*
G01*
X157894292Y-69524296D01*
X158096973Y-69760034D01*
X158211379Y-70067956D01*
X158220619Y-70236483D01*
X158161166Y-70515585D01*
X158028619Y-70769352D01*
X157842876Y-70950146D01*
X157714289Y-71014932D01*
X157543024Y-71047554D01*
X157304926Y-71037734D01*
X157170548Y-71025127D01*
X156961878Y-71007250D01*
X156820074Y-70997250D01*
X156734825Y-70979011D01*
X156689856Y-70907137D01*
X156679311Y-70746584D01*
X156688264Y-70620801D01*
X156729864Y-70518225D01*
X156793408Y-70527636D01*
X156865549Y-70655555D01*
X156906661Y-70736154D01*
X157063123Y-70878396D01*
X157270821Y-70938843D01*
X157494357Y-70911727D01*
X157698331Y-70791279D01*
X157792198Y-70677368D01*
X157895450Y-70424783D01*
X157922130Y-70138863D01*
X157870704Y-69862367D01*
X157739642Y-69638054D01*
X157672712Y-69578812D01*
X157526606Y-69518805D01*
X157304362Y-69501970D01*
X157255474Y-69502285D01*
X157076258Y-69518016D01*
X156960843Y-69572680D01*
X156858919Y-69687198D01*
X156779119Y-69785097D01*
X156696561Y-69840273D01*
X156659964Y-69779461D01*
X156666770Y-69601521D01*
X156672491Y-69559281D01*
X156716290Y-69425108D01*
X156795415Y-69391724D01*
X156813307Y-69392784D01*
X156956059Y-69381995D01*
X157138917Y-69350437D01*
X157313225Y-69329005D01*
X157625615Y-69375651D01*
G37*
G36*
X155754736Y-69295772D02*
G01*
X155938468Y-69315781D01*
X156209971Y-69400966D01*
X156374028Y-69546800D01*
X156429064Y-69752216D01*
X156427461Y-69784732D01*
X156351645Y-69968470D01*
X156159263Y-70140933D01*
X155846059Y-70306167D01*
X155752458Y-70348179D01*
X155619831Y-70424311D01*
X155566183Y-70501690D01*
X155564532Y-70609378D01*
X155584926Y-70689963D01*
X155691442Y-70821407D01*
X155852925Y-70885355D01*
X156033343Y-70879752D01*
X156196665Y-70802546D01*
X156306860Y-70651682D01*
X156312874Y-70636320D01*
X156381812Y-70519844D01*
X156440539Y-70508401D01*
X156478888Y-70583482D01*
X156486692Y-70726576D01*
X156453783Y-70919171D01*
X156451360Y-70927925D01*
X156418788Y-70995554D01*
X156350350Y-71032186D01*
X156216362Y-71045779D01*
X155987140Y-71044294D01*
X155683878Y-71014985D01*
X155454813Y-70930204D01*
X155323816Y-70784611D01*
X155282102Y-70572326D01*
X155295409Y-70442269D01*
X155370180Y-70289765D01*
X155528378Y-70157322D01*
X155789808Y-70023532D01*
X155980205Y-69929550D01*
X156121170Y-69820881D01*
X156163076Y-69706795D01*
X156118873Y-69569420D01*
X156116009Y-69564264D01*
X156003523Y-69472058D01*
X155842501Y-69447326D01*
X155675185Y-69481683D01*
X155543817Y-69566744D01*
X155490641Y-69694124D01*
X155488855Y-69707886D01*
X155428079Y-69752216D01*
X155415889Y-69747620D01*
X155379968Y-69665351D01*
X155365517Y-69512632D01*
X155365517Y-69273048D01*
X155754736Y-69295772D01*
G37*
G36*
X157022697Y-66687392D02*
G01*
X157270068Y-66697900D01*
X157433552Y-66719284D01*
X157492611Y-66749261D01*
X157490793Y-66764215D01*
X157430049Y-66811822D01*
X157412073Y-66834301D01*
X157388272Y-66962261D01*
X157372926Y-67189490D01*
X157367488Y-67500000D01*
X157369531Y-67697742D01*
X157381164Y-67959547D01*
X157401821Y-68128355D01*
X157430049Y-68188177D01*
X157458830Y-68198764D01*
X157492611Y-68282019D01*
X157472594Y-68331033D01*
X157376516Y-68365816D01*
X157179803Y-68375862D01*
X157017950Y-68367719D01*
X156891929Y-68331731D01*
X156882018Y-68270583D01*
X156992118Y-68188177D01*
X157022916Y-68168843D01*
X157096066Y-68062511D01*
X157117242Y-67873168D01*
X157116588Y-67784456D01*
X157097894Y-67672348D01*
X157026035Y-67631032D01*
X156865032Y-67625123D01*
X156670436Y-67647847D01*
X156576811Y-67718965D01*
X156544876Y-67782697D01*
X156488705Y-67809955D01*
X156446017Y-67732252D01*
X156429064Y-67562561D01*
X156435057Y-67462484D01*
X156467528Y-67341707D01*
X156515550Y-67304248D01*
X156564614Y-67370647D01*
X156574147Y-67383013D01*
X156671579Y-67422966D01*
X156833501Y-67448849D01*
X156992945Y-67446203D01*
X157090057Y-67388852D01*
X157118004Y-67255014D01*
X157088916Y-67024540D01*
X157060176Y-66909308D01*
X156996102Y-66829988D01*
X156869277Y-66811822D01*
X156716227Y-66821314D01*
X156549249Y-66875676D01*
X156491626Y-66974920D01*
X156485679Y-67011895D01*
X156429064Y-67062069D01*
X156428286Y-67062054D01*
X156384624Y-67006164D01*
X156366503Y-66874384D01*
X156366503Y-66686699D01*
X156929557Y-66686699D01*
X157022697Y-66687392D01*
G37*
G36*
X155972336Y-67819147D02*
G01*
X155815126Y-68073029D01*
X155548755Y-68266282D01*
X155469190Y-68303080D01*
X155152408Y-68377583D01*
X154852314Y-68337658D01*
X154589494Y-68185050D01*
X154543636Y-68142486D01*
X154349487Y-67878094D01*
X154265562Y-67595959D01*
X154560642Y-67595959D01*
X154562881Y-67779260D01*
X154606971Y-67912341D01*
X154707493Y-68050304D01*
X154816456Y-68157914D01*
X155011707Y-68246617D01*
X155222442Y-68213381D01*
X155455245Y-68058275D01*
X155466969Y-68047822D01*
X155657167Y-67800874D01*
X155729720Y-67511799D01*
X155684214Y-67182178D01*
X155678615Y-67164017D01*
X155574291Y-66956493D01*
X155410565Y-66845025D01*
X155162370Y-66811822D01*
X154979029Y-66844592D01*
X154777316Y-66981566D01*
X154635413Y-67210923D01*
X154566430Y-67517146D01*
X154560642Y-67595959D01*
X154265562Y-67595959D01*
X154264270Y-67591614D01*
X154283032Y-67305979D01*
X154400823Y-67044122D01*
X154612692Y-66828975D01*
X154913687Y-66683472D01*
X155098565Y-66641172D01*
X155257091Y-66649710D01*
X155456510Y-66713567D01*
X155546332Y-66751957D01*
X155809924Y-66937202D01*
X155969067Y-67190866D01*
X156022414Y-67511052D01*
X156022293Y-67511799D01*
X155972336Y-67819147D01*
G37*
G36*
X153800425Y-67228903D02*
G01*
X153791483Y-67479451D01*
X153796991Y-67735500D01*
X153816857Y-67964618D01*
X153850986Y-68134370D01*
X153899286Y-68212323D01*
X153944664Y-68241333D01*
X153958155Y-68312858D01*
X153953205Y-68319133D01*
X153863414Y-68355564D01*
X153713621Y-68372882D01*
X153549757Y-68371206D01*
X153417755Y-68350651D01*
X153363547Y-68311337D01*
X153374492Y-68276988D01*
X153457389Y-68210801D01*
X153466158Y-68206849D01*
X153530336Y-68108801D01*
X153551232Y-67899957D01*
X153551227Y-67893525D01*
X153541995Y-67723096D01*
X153505373Y-67644287D01*
X153426893Y-67625123D01*
X153408106Y-67626881D01*
X153283301Y-67700890D01*
X153149501Y-67867576D01*
X153114007Y-67921637D01*
X152913994Y-68161692D01*
X152705109Y-68319246D01*
X152510529Y-68375862D01*
X152456374Y-68373711D01*
X152375199Y-68341954D01*
X152409960Y-68270450D01*
X152561188Y-68156896D01*
X152588874Y-68137663D01*
X152751483Y-67984462D01*
X152886512Y-67801446D01*
X153018028Y-67571120D01*
X152877980Y-67422045D01*
X152847271Y-67386900D01*
X152748540Y-67186212D01*
X152759340Y-67072721D01*
X153028136Y-67072721D01*
X153044284Y-67264057D01*
X153107551Y-67374728D01*
X153207467Y-67460187D01*
X153368195Y-67507782D01*
X153481224Y-67488259D01*
X153536565Y-67375988D01*
X153551232Y-67155911D01*
X153551232Y-67152427D01*
X153547916Y-66957219D01*
X153526883Y-66855913D01*
X153471463Y-66817712D01*
X153364989Y-66811822D01*
X153275508Y-66822433D01*
X153113184Y-66914268D01*
X153028136Y-67072721D01*
X152759340Y-67072721D01*
X152767344Y-66988614D01*
X152902772Y-66816363D01*
X152956964Y-66778011D01*
X153085470Y-66722098D01*
X153263439Y-66694253D01*
X153528388Y-66686699D01*
X153602976Y-66687381D01*
X153834654Y-66702191D01*
X153966091Y-66733847D01*
X153989057Y-66779037D01*
X153895320Y-66834446D01*
X153862034Y-66874048D01*
X153823911Y-67016291D01*
X153808873Y-67152427D01*
X153800425Y-67228903D01*
G37*
G36*
X152051797Y-67697742D02*
G01*
X152063430Y-67959547D01*
X152084087Y-68128355D01*
X152112315Y-68188177D01*
X152141096Y-68198764D01*
X152174877Y-68282019D01*
X152166362Y-68307912D01*
X152071921Y-68357854D01*
X151897110Y-68382070D01*
X151672212Y-68381586D01*
X151427513Y-68357428D01*
X151193297Y-68310624D01*
X150999846Y-68242198D01*
X150885339Y-68177569D01*
X150660499Y-67971542D01*
X150528028Y-67723228D01*
X150495495Y-67501720D01*
X150799913Y-67501720D01*
X150841448Y-67795040D01*
X150976197Y-68013197D01*
X151211340Y-68163505D01*
X151334094Y-68210136D01*
X151530637Y-68246385D01*
X151660395Y-68191581D01*
X151738842Y-68034922D01*
X151781455Y-67765609D01*
X151790978Y-67607156D01*
X151790922Y-67330735D01*
X151772485Y-67099939D01*
X151752820Y-66979260D01*
X151715331Y-66864092D01*
X151644490Y-66819353D01*
X151510034Y-66811822D01*
X151234528Y-66851358D01*
X150999897Y-66984786D01*
X150852160Y-67204356D01*
X150799913Y-67501720D01*
X150495495Y-67501720D01*
X150488902Y-67456831D01*
X150544098Y-67196554D01*
X150694590Y-66966601D01*
X150941355Y-66791175D01*
X151073960Y-66749219D01*
X151279776Y-66714271D01*
X151518444Y-66691884D01*
X151758627Y-66683126D01*
X151968985Y-66689059D01*
X152118181Y-66710749D01*
X152174877Y-66749261D01*
X152173059Y-66764215D01*
X152112315Y-66811822D01*
X152094339Y-66834301D01*
X152070538Y-66962261D01*
X152055192Y-67189490D01*
X152049754Y-67500000D01*
X152050861Y-67607156D01*
X152051797Y-67697742D01*
G37*
G36*
X156974437Y-64060691D02*
G01*
X157158028Y-64080145D01*
X157263791Y-64115544D01*
X157276043Y-64158980D01*
X157179099Y-64202547D01*
X157167891Y-64205681D01*
X157116239Y-64233237D01*
X157083178Y-64293789D01*
X157064622Y-64410365D01*
X157056484Y-64605992D01*
X157054680Y-64903694D01*
X157054722Y-64967889D01*
X157057369Y-65244762D01*
X157067089Y-65423867D01*
X157087993Y-65528249D01*
X157124194Y-65580953D01*
X157179803Y-65605025D01*
X157252861Y-65634600D01*
X157304926Y-65693011D01*
X157277615Y-65716529D01*
X157161290Y-65738727D01*
X156991988Y-65747031D01*
X156811911Y-65741604D01*
X156663265Y-65722612D01*
X156588252Y-65690218D01*
X156592794Y-65646313D01*
X156678402Y-65592160D01*
X156686963Y-65589333D01*
X156740562Y-65559351D01*
X156774868Y-65498296D01*
X156794121Y-65382661D01*
X156802562Y-65188938D01*
X156804434Y-64893621D01*
X156804410Y-64845578D01*
X156801924Y-64566128D01*
X156792376Y-64385313D01*
X156771561Y-64279903D01*
X156735275Y-64226663D01*
X156679311Y-64202363D01*
X156651694Y-64194601D01*
X156558104Y-64147350D01*
X156575420Y-64103674D01*
X156691596Y-64071589D01*
X156894584Y-64059113D01*
X156974437Y-64060691D01*
G37*
G36*
X156299537Y-64198494D02*
G01*
X156320559Y-64283951D01*
X156311990Y-64386209D01*
X156263346Y-64412167D01*
X156193282Y-64337427D01*
X156174877Y-64314875D01*
X156053200Y-64247052D01*
X155876629Y-64202751D01*
X155615764Y-64167761D01*
X155615764Y-64859960D01*
X155615855Y-64953519D01*
X155618830Y-65227624D01*
X155628913Y-65405656D01*
X155650012Y-65510472D01*
X155686035Y-65564925D01*
X155740887Y-65591872D01*
X155814376Y-65626395D01*
X155866010Y-65689930D01*
X155816772Y-65719879D01*
X155681373Y-65739746D01*
X155500191Y-65747059D01*
X155313843Y-65741689D01*
X155162945Y-65723508D01*
X155088115Y-65692388D01*
X155105883Y-65644390D01*
X155209546Y-65597353D01*
X155258697Y-65583577D01*
X155310360Y-65552999D01*
X155341921Y-65489534D01*
X155358332Y-65370121D01*
X155364547Y-65171703D01*
X155365517Y-64871222D01*
X155365517Y-64184236D01*
X155140695Y-64184236D01*
X155070113Y-64186365D01*
X154939982Y-64220430D01*
X154883152Y-64309359D01*
X154854906Y-64382518D01*
X154802463Y-64434483D01*
X154793252Y-64431920D01*
X154743270Y-64359938D01*
X154698510Y-64228352D01*
X154678194Y-64090394D01*
X154717311Y-64067997D01*
X154868154Y-64046400D01*
X155119753Y-64032653D01*
X155458692Y-64027832D01*
X156240044Y-64027832D01*
X156299537Y-64198494D01*
G37*
G36*
X154289526Y-64063335D02*
G01*
X154433389Y-64085987D01*
X154489655Y-64121675D01*
X154483511Y-64145608D01*
X154409332Y-64184236D01*
X154409069Y-64184238D01*
X154336676Y-64233905D01*
X154224547Y-64363085D01*
X154096842Y-64543965D01*
X154043159Y-64629051D01*
X153932124Y-64836428D01*
X153878453Y-65018611D01*
X153864358Y-65227927D01*
X153864524Y-65271394D01*
X153876007Y-65451325D01*
X153913938Y-65546893D01*
X153990071Y-65592160D01*
X154059597Y-65628819D01*
X154080221Y-65690218D01*
X154038382Y-65714358D01*
X153907993Y-65737684D01*
X153733108Y-65746888D01*
X153555934Y-65741985D01*
X153418678Y-65722993D01*
X153363547Y-65689930D01*
X153387563Y-65648039D01*
X153488670Y-65591872D01*
X153564756Y-65546010D01*
X153603699Y-65444683D01*
X153613793Y-65254293D01*
X153595075Y-65086722D01*
X153488474Y-64783279D01*
X153307714Y-64491058D01*
X153075991Y-64253232D01*
X152988387Y-64179501D01*
X152937195Y-64104369D01*
X152997565Y-64068365D01*
X153175862Y-64059113D01*
X153284917Y-64065984D01*
X153401342Y-64099716D01*
X153428960Y-64148894D01*
X153349963Y-64199191D01*
X153331843Y-64216634D01*
X153356615Y-64315102D01*
X153470326Y-64491784D01*
X153666834Y-64758994D01*
X153843289Y-64492353D01*
X153905216Y-64393386D01*
X153965388Y-64257630D01*
X153941892Y-64199760D01*
X153862460Y-64155441D01*
X153878656Y-64108415D01*
X153988873Y-64073061D01*
X154176847Y-64059113D01*
X154289526Y-64063335D01*
G37*
G36*
X166057950Y-70497625D02*
G01*
X165892593Y-70759807D01*
X165624369Y-70956430D01*
X165542262Y-70993472D01*
X165232882Y-71064744D01*
X164938374Y-71033705D01*
X164689745Y-70902154D01*
X164583002Y-70801239D01*
X164396313Y-70529737D01*
X164330007Y-70297454D01*
X164613065Y-70297454D01*
X164665135Y-70543204D01*
X164807503Y-70758014D01*
X164958610Y-70875600D01*
X165169787Y-70930145D01*
X165388792Y-70861149D01*
X165618963Y-70668243D01*
X165729181Y-70498486D01*
X165793275Y-70254174D01*
X165787944Y-69996464D01*
X165718777Y-69757687D01*
X165591358Y-69570175D01*
X165411276Y-69466260D01*
X165311718Y-69450648D01*
X165081782Y-69488508D01*
X164885650Y-69616291D01*
X164734620Y-69809825D01*
X164639993Y-70044937D01*
X164613065Y-70297454D01*
X164330007Y-70297454D01*
X164314727Y-70243923D01*
X164331208Y-69964211D01*
X164438717Y-69711018D01*
X164630215Y-69504758D01*
X164898665Y-69365846D01*
X165237029Y-69314698D01*
X165350667Y-69316513D01*
X165520189Y-69340766D01*
X165658851Y-69411854D01*
X165823797Y-69552984D01*
X165863804Y-69590864D01*
X166003657Y-69746812D01*
X166075604Y-69898177D01*
X166108477Y-70100398D01*
X166112760Y-70183467D01*
X166100424Y-70254174D01*
X166057950Y-70497625D01*
G37*
%TD*%
M02*
