%TF.GenerationSoftware,KiCad,Pcbnew,8.0.5*%
%TF.CreationDate,2024-10-09T23:06:33-04:00*%
%TF.ProjectId,4-Channel Array V3,342d4368-616e-46e6-956c-204172726179,rev?*%
%TF.SameCoordinates,Original*%
%TF.FileFunction,Paste,Top*%
%TF.FilePolarity,Positive*%
%FSLAX46Y46*%
G04 Gerber Fmt 4.6, Leading zero omitted, Abs format (unit mm)*
G04 Created by KiCad (PCBNEW 8.0.5) date 2024-10-09 23:06:33*
%MOMM*%
%LPD*%
G01*
G04 APERTURE LIST*
G04 Aperture macros list*
%AMRoundRect*
0 Rectangle with rounded corners*
0 $1 Rounding radius*
0 $2 $3 $4 $5 $6 $7 $8 $9 X,Y pos of 4 corners*
0 Add a 4 corners polygon primitive as box body*
4,1,4,$2,$3,$4,$5,$6,$7,$8,$9,$2,$3,0*
0 Add four circle primitives for the rounded corners*
1,1,$1+$1,$2,$3*
1,1,$1+$1,$4,$5*
1,1,$1+$1,$6,$7*
1,1,$1+$1,$8,$9*
0 Add four rect primitives between the rounded corners*
20,1,$1+$1,$2,$3,$4,$5,0*
20,1,$1+$1,$4,$5,$6,$7,0*
20,1,$1+$1,$6,$7,$8,$9,0*
20,1,$1+$1,$8,$9,$2,$3,0*%
G04 Aperture macros list end*
%ADD10C,0.400000*%
%ADD11RoundRect,0.200000X0.200000X0.275000X-0.200000X0.275000X-0.200000X-0.275000X0.200000X-0.275000X0*%
%ADD12RoundRect,0.200000X-0.200000X-0.275000X0.200000X-0.275000X0.200000X0.275000X-0.200000X0.275000X0*%
%ADD13RoundRect,0.200000X0.275000X-0.200000X0.275000X0.200000X-0.275000X0.200000X-0.275000X-0.200000X0*%
%ADD14RoundRect,0.140000X0.170000X-0.140000X0.170000X0.140000X-0.170000X0.140000X-0.170000X-0.140000X0*%
%ADD15RoundRect,0.140000X-0.170000X0.140000X-0.170000X-0.140000X0.170000X-0.140000X0.170000X0.140000X0*%
%ADD16R,1.422400X0.355600*%
G04 APERTURE END LIST*
D10*
%TO.C,MK4*%
X179250000Y-77800000D02*
X179050000Y-77800000D01*
X179250000Y-78500000D02*
X179050000Y-78500000D01*
X180950000Y-77800000D02*
X180750000Y-77800000D01*
X180950000Y-78500000D02*
X180750000Y-78500000D01*
X179242031Y-79724831D02*
G75*
G02*
X179400031Y-79451166I757239J-254749D01*
G01*
X179400031Y-80508830D02*
G75*
G02*
X179242031Y-80235169I599229J528410D01*
G01*
X179842000Y-79195994D02*
G75*
G02*
X180158000Y-79195994I158000J-783166D01*
G01*
X180158000Y-80764010D02*
G75*
G02*
X179842000Y-80764010I-158000J783210D01*
G01*
X180599969Y-79451166D02*
G75*
G02*
X180757969Y-79724831I-599239J-528414D01*
G01*
X180757969Y-80235169D02*
G75*
G02*
X180599970Y-80508831I-757269J254769D01*
G01*
%TO.C,MK2*%
X149250000Y-77800000D02*
X149050000Y-77800000D01*
X149250000Y-78500000D02*
X149050000Y-78500000D01*
X150950000Y-77800000D02*
X150750000Y-77800000D01*
X150950000Y-78500000D02*
X150750000Y-78500000D01*
X149242031Y-79724831D02*
G75*
G02*
X149400031Y-79451166I757239J-254749D01*
G01*
X149400031Y-80508830D02*
G75*
G02*
X149242031Y-80235169I599229J528410D01*
G01*
X149842000Y-79195994D02*
G75*
G02*
X150158000Y-79195994I158000J-783166D01*
G01*
X150158000Y-80764010D02*
G75*
G02*
X149842000Y-80764010I-158000J783210D01*
G01*
X150599969Y-79451166D02*
G75*
G02*
X150757969Y-79724831I-599239J-528414D01*
G01*
X150757969Y-80235169D02*
G75*
G02*
X150599970Y-80508831I-757269J254769D01*
G01*
%TO.C,MK3*%
X179050000Y-51480000D02*
X179250000Y-51480000D01*
X179050000Y-52180000D02*
X179250000Y-52180000D01*
X180750000Y-51480000D02*
X180950000Y-51480000D01*
X180750000Y-52180000D02*
X180950000Y-52180000D01*
X179242031Y-49744831D02*
G75*
G02*
X179400030Y-49471169I757269J-254769D01*
G01*
X179400031Y-50528834D02*
G75*
G02*
X179242031Y-50255169I599239J528414D01*
G01*
X179842000Y-49215990D02*
G75*
G02*
X180158000Y-49215990I158000J-783210D01*
G01*
X180158000Y-50784006D02*
G75*
G02*
X179842000Y-50784006I-158000J783166D01*
G01*
X180599969Y-49471170D02*
G75*
G02*
X180757969Y-49744831I-599229J-528410D01*
G01*
X180757969Y-50255169D02*
G75*
G02*
X180599969Y-50528834I-757239J254749D01*
G01*
%TO.C,MK1*%
X149050000Y-51480000D02*
X149250000Y-51480000D01*
X149050000Y-52180000D02*
X149250000Y-52180000D01*
X150750000Y-51480000D02*
X150950000Y-51480000D01*
X150750000Y-52180000D02*
X150950000Y-52180000D01*
X149242031Y-49744831D02*
G75*
G02*
X149400030Y-49471169I757269J-254769D01*
G01*
X149400031Y-50528834D02*
G75*
G02*
X149242031Y-50255169I599239J528414D01*
G01*
X149842000Y-49215990D02*
G75*
G02*
X150158000Y-49215990I158000J-783210D01*
G01*
X150158000Y-50784006D02*
G75*
G02*
X149842000Y-50784006I-158000J783166D01*
G01*
X150599969Y-49471170D02*
G75*
G02*
X150757969Y-49744831I-599229J-528410D01*
G01*
X150757969Y-50255169D02*
G75*
G02*
X150599969Y-50528834I-757239J254749D01*
G01*
%TD*%
D11*
%TO.C,R7*%
X179000000Y-64000000D03*
X177350000Y-64000000D03*
%TD*%
D12*
%TO.C,R5*%
X150850000Y-64000000D03*
X152500000Y-64000000D03*
%TD*%
%TO.C,R3*%
X178350000Y-60000000D03*
X180000000Y-60000000D03*
%TD*%
D11*
%TO.C,R8*%
X179000000Y-66000000D03*
X177350000Y-66000000D03*
%TD*%
D13*
%TO.C,R1*%
X153000000Y-57150000D03*
X153000000Y-55500000D03*
%TD*%
D14*
%TO.C,C2*%
X154000000Y-53480000D03*
X154000000Y-52520000D03*
%TD*%
D12*
%TO.C,C3*%
X167675000Y-56500000D03*
X169325000Y-56500000D03*
%TD*%
D14*
%TO.C,C6*%
X177000000Y-52480000D03*
X177000000Y-51520000D03*
%TD*%
D15*
%TO.C,C5*%
X177500000Y-77520000D03*
X177500000Y-78480000D03*
%TD*%
D16*
%TO.C,U1*%
X162000000Y-70500000D03*
X162000000Y-71160400D03*
X162000000Y-71795400D03*
X162000000Y-72455800D03*
X162000000Y-73116200D03*
X162000000Y-73751200D03*
X162000000Y-74411600D03*
X167689600Y-74411600D03*
X167689600Y-73751200D03*
X167689600Y-73116200D03*
X167689600Y-72455800D03*
X167689600Y-71795400D03*
X167689600Y-71160400D03*
X167689600Y-70500000D03*
%TD*%
D12*
%TO.C,R6*%
X150850000Y-66000000D03*
X152500000Y-66000000D03*
%TD*%
D11*
%TO.C,R2*%
X151825000Y-74000000D03*
X150175000Y-74000000D03*
%TD*%
D13*
%TO.C,C1*%
X170000000Y-71325000D03*
X170000000Y-69675000D03*
%TD*%
D15*
%TO.C,C4*%
X152500000Y-79520000D03*
X152500000Y-80480000D03*
%TD*%
D12*
%TO.C,R4*%
X175675000Y-74500000D03*
X177325000Y-74500000D03*
%TD*%
M02*
