%TF.GenerationSoftware,KiCad,Pcbnew,8.0.5*%
%TF.CreationDate,2024-10-09T23:06:32-04:00*%
%TF.ProjectId,4-Channel Array V3,342d4368-616e-46e6-956c-204172726179,rev?*%
%TF.SameCoordinates,Original*%
%TF.FileFunction,Copper,L1,Top*%
%TF.FilePolarity,Positive*%
%FSLAX46Y46*%
G04 Gerber Fmt 4.6, Leading zero omitted, Abs format (unit mm)*
G04 Created by KiCad (PCBNEW 8.0.5) date 2024-10-09 23:06:32*
%MOMM*%
%LPD*%
G01*
G04 APERTURE LIST*
G04 Aperture macros list*
%AMRoundRect*
0 Rectangle with rounded corners*
0 $1 Rounding radius*
0 $2 $3 $4 $5 $6 $7 $8 $9 X,Y pos of 4 corners*
0 Add a 4 corners polygon primitive as box body*
4,1,4,$2,$3,$4,$5,$6,$7,$8,$9,$2,$3,0*
0 Add four circle primitives for the rounded corners*
1,1,$1+$1,$2,$3*
1,1,$1+$1,$4,$5*
1,1,$1+$1,$6,$7*
1,1,$1+$1,$8,$9*
0 Add four rect primitives between the rounded corners*
20,1,$1+$1,$2,$3,$4,$5,0*
20,1,$1+$1,$4,$5,$6,$7,0*
20,1,$1+$1,$6,$7,$8,$9,0*
20,1,$1+$1,$8,$9,$2,$3,0*%
%AMFreePoly0*
4,1,375,0.829010,1.029500,0.829046,1.029498,0.883046,1.024498,0.883064,1.024496,0.937064,1.017496,0.937093,1.017491,0.990093,1.007491,0.990110,1.007488,1.043110,0.995488,1.043147,0.995478,1.095147,0.979478,1.095166,0.979471,1.146166,0.961471,1.146186,0.961464,1.196186,0.941464,1.196220,0.941449,1.245220,0.917449,1.245238,0.917440,1.293238,0.891440,1.293260,0.891427,
1.339260,0.863427,1.339288,0.863409,1.383288,0.832409,1.383304,0.832397,1.426304,0.799397,1.426320,0.799384,1.468320,0.764384,1.468344,0.764363,1.507344,0.727363,1.507363,0.727344,1.544363,0.688344,1.544384,0.688320,1.579384,0.646320,1.579397,0.646304,1.612397,0.603304,1.612409,0.603288,1.643409,0.559288,1.643427,0.559260,1.671427,0.513260,1.671440,0.513238,
1.697440,0.465238,1.697449,0.465220,1.721449,0.416220,1.721464,0.416186,1.741464,0.366186,1.741471,0.366166,1.759471,0.315166,1.759478,0.315147,1.775478,0.263147,1.775488,0.263110,1.787488,0.210110,1.787491,0.210093,1.797491,0.157093,1.797496,0.157064,1.804496,0.103064,1.804498,0.103046,1.809498,0.049046,1.809500,0.049010,1.810500,0.000010,1.810500,-0.000009,
1.809500,-0.054009,1.809498,-0.054046,1.804498,-0.108046,1.804496,-0.108065,1.797496,-0.161065,1.797491,-0.161093,1.787491,-0.214093,1.787488,-0.214110,1.775488,-0.267110,1.775480,-0.267141,1.760480,-0.318141,1.760471,-0.318166,1.742471,-0.369166,1.742461,-0.369194,1.721461,-0.419194,1.721453,-0.419212,1.698453,-0.468212,1.698438,-0.468242,1.672438,-0.515242,1.672427,-0.515260,
1.644427,-0.561260,1.644409,-0.561288,1.613409,-0.605288,1.613397,-0.605304,1.580397,-0.648304,1.580380,-0.648325,1.545380,-0.689325,1.545363,-0.689344,1.508363,-0.728344,1.508344,-0.728363,1.469344,-0.765363,1.469325,-0.765380,1.428325,-0.800380,1.428304,-0.800397,1.385304,-0.833397,1.385288,-0.833409,1.341288,-0.864409,1.341260,-0.864427,1.295260,-0.892427,1.295242,-0.892438,
1.248242,-0.918438,1.248212,-0.918453,1.199212,-0.941453,1.199194,-0.941461,1.149194,-0.962461,1.149166,-0.962471,1.098166,-0.980471,1.098141,-0.980480,1.047141,-0.995480,1.047110,-0.995488,0.994110,-1.007488,0.994093,-1.007491,0.941093,-1.017491,0.941065,-1.017496,0.888065,-1.024496,0.888046,-1.024498,0.834046,-1.029498,0.834009,-1.029500,0.780009,-1.030500,0.779991,-1.030500,
0.725991,-1.029500,0.725954,-1.029498,0.671954,-1.024498,0.671935,-1.024496,0.618935,-1.017496,0.618907,-1.017491,0.565907,-1.007491,0.565890,-1.007488,0.512890,-0.995488,0.512859,-0.995480,0.461859,-0.980480,0.461834,-0.980471,0.410834,-0.962471,0.410806,-0.962461,0.360806,-0.941461,0.360788,-0.941453,0.311788,-0.918453,0.311758,-0.918438,0.264758,-0.892438,0.264740,-0.892427,
0.218740,-0.864427,0.218712,-0.864409,0.174712,-0.833409,0.174696,-0.833397,0.131696,-0.800397,0.131675,-0.800380,0.090675,-0.765380,0.090656,-0.765363,0.051656,-0.728363,0.051637,-0.728344,0.014637,-0.689344,0.014620,-0.689325,-0.020380,-0.648325,-0.020397,-0.648304,-0.053397,-0.605304,-0.053409,-0.605288,-0.084409,-0.561288,-0.084427,-0.561260,-0.112427,-0.515260,-0.112438,-0.515242,
-0.138438,-0.468242,-0.138453,-0.468212,-0.161453,-0.419212,-0.161461,-0.419194,-0.182461,-0.369194,-0.182471,-0.369166,-0.200471,-0.318166,-0.200480,-0.318141,-0.215480,-0.267141,-0.215488,-0.267110,-0.227488,-0.214110,-0.227491,-0.214093,-0.237491,-0.161093,-0.237496,-0.161065,-0.244496,-0.108065,-0.244498,-0.108046,-0.249498,-0.054046,-0.249500,-0.054009,-0.250500,-0.000009,-0.250500,0.000000,
0.200500,0.000000,0.201500,-0.029983,0.203497,-0.060945,0.207495,-0.090928,0.213486,-0.120883,0.220482,-0.149867,0.228477,-0.178850,0.239465,-0.207817,0.250454,-0.235790,0.263448,-0.262777,0.278426,-0.289738,0.294426,-0.315738,0.311400,-0.340700,0.329391,-0.364688,0.349362,-0.387655,0.370353,-0.409646,0.392342,-0.430635,0.415311,-0.450608,0.439298,-0.468599,0.464262,-0.485574,
0.490254,-0.501569,0.517223,-0.516551,0.544209,-0.529545,0.572183,-0.540535,0.572182,-0.540535,0.601149,-0.551522,0.630129,-0.559516,0.659112,-0.566512,0.689072,-0.572504,0.719054,-0.576502,0.750016,-0.578500,0.750017,-0.578500,0.780000,-0.579499,0.809983,-0.578500,0.840945,-0.576502,0.870928,-0.572504,0.900887,-0.566512,0.929871,-0.559516,0.958850,-0.551522,0.987817,-0.540535,
1.015790,-0.529545,1.042777,-0.516551,1.069745,-0.501569,1.095738,-0.485574,1.120701,-0.468599,1.144688,-0.450608,1.167657,-0.430635,1.189646,-0.409646,1.210638,-0.387655,1.230608,-0.364688,1.248600,-0.340700,1.265574,-0.315738,1.281574,-0.289738,1.296551,-0.262777,1.309545,-0.235790,1.320535,-0.207817,1.331522,-0.178850,1.339518,-0.149867,1.346514,-0.120883,1.352504,-0.090928,
1.356502,-0.060945,1.358500,-0.029983,1.359500,0.000017,1.359500,0.009980,1.358500,0.034980,1.356502,0.064946,1.352504,0.094934,1.346514,0.124883,1.339518,0.153867,1.331523,0.182848,1.321536,0.210812,1.309549,0.238783,1.296549,0.265783,1.282567,0.292748,1.266579,0.317730,1.249600,0.342700,1.231608,0.366688,1.211630,0.389664,1.191646,0.411646,1.169672,0.431623,
1.146688,0.451608,1.122700,0.469600,1.097730,0.486579,1.072748,0.502567,1.045783,0.516549,1.018791,0.529545,0.990812,0.541536,0.962848,0.551523,0.933871,0.559516,0.904887,0.566512,0.874928,0.572504,0.844946,0.576502,0.814979,0.578500,0.779986,0.579500,0.779636,0.579657,0.779500,0.580000,0.779354,0.579646,0.779017,0.579500,0.749019,0.578500,0.719054,0.576502,
0.689072,0.572504,0.659112,0.566512,0.630129,0.559516,0.601149,0.551522,0.572182,0.540535,0.572183,0.540535,0.544209,0.529545,0.517223,0.516551,0.490254,0.501569,0.464262,0.485574,0.439300,0.468600,0.415311,0.450608,0.392345,0.430638,0.370353,0.409646,0.349362,0.387655,0.329391,0.364688,0.311400,0.340700,0.294425,0.315738,0.294426,0.315738,0.278426,0.289738,
0.263451,0.262783,0.250454,0.235790,0.239465,0.207817,0.228477,0.178850,0.220482,0.149867,0.213486,0.120883,0.207496,0.090934,0.203497,0.060946,0.201499,0.030967,0.200500,0.000000,-0.250500,0.000000,-0.250500,0.000009,-0.249500,0.054009,-0.249498,0.054046,-0.244498,0.108046,-0.244496,0.108065,-0.237496,0.161065,-0.237491,0.161093,-0.227491,0.214093,-0.227488,0.214110,
-0.215488,0.267110,-0.215480,0.267141,-0.200480,0.318141,-0.200471,0.318166,-0.182471,0.369166,-0.182461,0.369194,-0.161461,0.419194,-0.161453,0.419212,-0.138453,0.468212,-0.138438,0.468242,-0.112438,0.515242,-0.112427,0.515260,-0.084427,0.561260,-0.084412,0.561284,-0.053412,0.606284,-0.053398,0.606303,-0.021398,0.648303,-0.021380,0.648325,0.013620,0.689325,0.013642,0.689349,
0.051642,0.728349,0.051651,0.728358,0.090651,0.766358,0.090675,0.766380,0.131675,0.801380,0.131697,0.801398,0.173697,0.833398,0.173716,0.833412,0.218716,0.864412,0.218740,0.864427,0.264740,0.892427,0.264758,0.892438,0.311758,0.918438,0.311788,0.918453,0.360788,0.941453,0.360806,0.941461,0.410806,0.962461,0.410834,0.962471,0.461834,0.980471,0.461859,0.980480,
0.512859,0.995480,0.512890,0.995488,0.565890,1.007488,0.565907,1.007491,0.618907,1.017491,0.618935,1.017496,0.671935,1.024496,0.671954,1.024498,0.725954,1.029498,0.725991,1.029500,0.779491,1.030500,0.779751,1.030397,0.780000,1.030500,0.780010,1.030500,0.829010,1.029500,0.829010,1.029500,$1*%
G04 Aperture macros list end*
%TA.AperFunction,SMDPad,CuDef*%
%ADD10RoundRect,0.200000X0.200000X0.275000X-0.200000X0.275000X-0.200000X-0.275000X0.200000X-0.275000X0*%
%TD*%
%TA.AperFunction,SMDPad,CuDef*%
%ADD11RoundRect,0.200000X-0.200000X-0.275000X0.200000X-0.275000X0.200000X0.275000X-0.200000X0.275000X0*%
%TD*%
%TA.AperFunction,ComponentPad*%
%ADD12RoundRect,0.250000X0.600000X0.725000X-0.600000X0.725000X-0.600000X-0.725000X0.600000X-0.725000X0*%
%TD*%
%TA.AperFunction,ComponentPad*%
%ADD13O,1.700000X1.950000*%
%TD*%
%TA.AperFunction,SMDPad,CuDef*%
%ADD14RoundRect,0.200000X0.275000X-0.200000X0.275000X0.200000X-0.275000X0.200000X-0.275000X-0.200000X0*%
%TD*%
%TA.AperFunction,SMDPad,CuDef*%
%ADD15RoundRect,0.140000X0.170000X-0.140000X0.170000X0.140000X-0.170000X0.140000X-0.170000X-0.140000X0*%
%TD*%
%TA.AperFunction,SMDPad,CuDef*%
%ADD16R,0.750000X0.450000*%
%TD*%
%TA.AperFunction,SMDPad,CuDef*%
%ADD17FreePoly0,270.000000*%
%TD*%
%TA.AperFunction,SMDPad,CuDef*%
%ADD18FreePoly0,90.000000*%
%TD*%
%TA.AperFunction,SMDPad,CuDef*%
%ADD19RoundRect,0.140000X-0.170000X0.140000X-0.170000X-0.140000X0.170000X-0.140000X0.170000X0.140000X0*%
%TD*%
%TA.AperFunction,SMDPad,CuDef*%
%ADD20R,1.422400X0.355600*%
%TD*%
%TA.AperFunction,ViaPad*%
%ADD21C,0.600000*%
%TD*%
%TA.AperFunction,Conductor*%
%ADD22C,0.200000*%
%TD*%
G04 APERTURE END LIST*
D10*
%TO.P,R7,1*%
%TO.N,Net-(MK3-DATA)*%
X179000000Y-64000000D03*
%TO.P,R7,2*%
%TO.N,Net-(J1-Pin_5)*%
X177350000Y-64000000D03*
%TD*%
D11*
%TO.P,R5,1*%
%TO.N,Net-(MK1-DATA)*%
X150850000Y-64000000D03*
%TO.P,R5,2*%
%TO.N,Net-(J1-Pin_4)*%
X152500000Y-64000000D03*
%TD*%
D12*
%TO.P,J1,1,Pin_1*%
%TO.N,Net-(J1-Pin_1)*%
X170000000Y-52500000D03*
D13*
%TO.P,J1,2,Pin_2*%
%TO.N,Net-(J1-Pin_2)*%
X167500000Y-52500000D03*
%TO.P,J1,3,Pin_3*%
%TO.N,Net-(J1-Pin_3)*%
X165000000Y-52500000D03*
%TO.P,J1,4,Pin_4*%
%TO.N,Net-(J1-Pin_4)*%
X162500000Y-52500000D03*
%TO.P,J1,5,Pin_5*%
%TO.N,Net-(J1-Pin_5)*%
X160000000Y-52500000D03*
%TD*%
D11*
%TO.P,R3,1*%
%TO.N,Net-(U1-O2)*%
X178350000Y-60000000D03*
%TO.P,R3,2*%
%TO.N,Net-(MK3-CLK)*%
X180000000Y-60000000D03*
%TD*%
D10*
%TO.P,R8,1*%
%TO.N,Net-(MK4-DATA)*%
X179000000Y-66000000D03*
%TO.P,R8,2*%
%TO.N,Net-(J1-Pin_5)*%
X177350000Y-66000000D03*
%TD*%
D14*
%TO.P,R1,1*%
%TO.N,Net-(U1-O0)*%
X153000000Y-57150000D03*
%TO.P,R1,2*%
%TO.N,Net-(MK1-CLK)*%
X153000000Y-55500000D03*
%TD*%
D15*
%TO.P,C2,1*%
%TO.N,Net-(J1-Pin_2)*%
X154000000Y-53480000D03*
%TO.P,C2,2*%
%TO.N,Net-(J1-Pin_1)*%
X154000000Y-52520000D03*
%TD*%
D11*
%TO.P,C3,1*%
%TO.N,Net-(J1-Pin_2)*%
X167675000Y-56500000D03*
%TO.P,C3,2*%
%TO.N,Net-(J1-Pin_1)*%
X169325000Y-56500000D03*
%TD*%
D16*
%TO.P,MK4,1,DATA*%
%TO.N,Net-(MK4-DATA)*%
X180850000Y-77800000D03*
%TO.P,MK4,2,VDD*%
%TO.N,Net-(J1-Pin_2)*%
X180850000Y-78500000D03*
%TO.P,MK4,3,CLK*%
%TO.N,Net-(MK4-CLK)*%
X179150000Y-77800000D03*
%TO.P,MK4,4,SEL*%
%TO.N,Net-(J1-Pin_2)*%
X179150000Y-78500000D03*
D17*
%TO.P,MK4,5,GND*%
%TO.N,Net-(J1-Pin_1)*%
X180000000Y-79200000D03*
%TD*%
D15*
%TO.P,C6,1*%
%TO.N,Net-(J1-Pin_2)*%
X177000000Y-52480000D03*
%TO.P,C6,2*%
%TO.N,Net-(J1-Pin_1)*%
X177000000Y-51520000D03*
%TD*%
D16*
%TO.P,MK2,1,DATA*%
%TO.N,Net-(MK2-DATA)*%
X150850000Y-77800000D03*
%TO.P,MK2,2,VDD*%
%TO.N,Net-(J1-Pin_2)*%
X150850000Y-78500000D03*
%TO.P,MK2,3,CLK*%
%TO.N,Net-(MK2-CLK)*%
X149150000Y-77800000D03*
%TO.P,MK2,4,SEL*%
%TO.N,Net-(J1-Pin_2)*%
X149150000Y-78500000D03*
D17*
%TO.P,MK2,5,GND*%
%TO.N,Net-(J1-Pin_1)*%
X150000000Y-79200000D03*
%TD*%
D16*
%TO.P,MK3,1,DATA*%
%TO.N,Net-(MK3-DATA)*%
X179150000Y-52180000D03*
%TO.P,MK3,2,VDD*%
%TO.N,Net-(J1-Pin_2)*%
X179150000Y-51480000D03*
%TO.P,MK3,3,CLK*%
%TO.N,Net-(MK3-CLK)*%
X180850000Y-52180000D03*
%TO.P,MK3,4,SEL*%
%TO.N,Net-(J1-Pin_1)*%
X180850000Y-51480000D03*
D18*
%TO.P,MK3,5,GND*%
X180000000Y-50780000D03*
%TD*%
D19*
%TO.P,C5,1*%
%TO.N,Net-(J1-Pin_2)*%
X177500000Y-77520000D03*
%TO.P,C5,2*%
%TO.N,Net-(J1-Pin_1)*%
X177500000Y-78480000D03*
%TD*%
D20*
%TO.P,U1,1,~OE0*%
%TO.N,Net-(J1-Pin_1)*%
X162000000Y-70500000D03*
%TO.P,U1,2,A0*%
%TO.N,Net-(J1-Pin_3)*%
X162000000Y-71160400D03*
%TO.P,U1,3,O0*%
%TO.N,Net-(U1-O0)*%
X162000000Y-71795400D03*
%TO.P,U1,4,~OE1*%
%TO.N,Net-(J1-Pin_1)*%
X162000000Y-72455800D03*
%TO.P,U1,5,A1*%
%TO.N,Net-(J1-Pin_3)*%
X162000000Y-73116200D03*
%TO.P,U1,6,O1*%
%TO.N,Net-(U1-O1)*%
X162000000Y-73751200D03*
%TO.P,U1,7,GND*%
%TO.N,Net-(J1-Pin_1)*%
X162000000Y-74411600D03*
%TO.P,U1,8,O3*%
%TO.N,Net-(U1-O3)*%
X167689600Y-74411600D03*
%TO.P,U1,9,A3*%
%TO.N,Net-(J1-Pin_3)*%
X167689600Y-73751200D03*
%TO.P,U1,10,~OE3*%
%TO.N,Net-(J1-Pin_1)*%
X167689600Y-73116200D03*
%TO.P,U1,11,O2*%
%TO.N,Net-(U1-O2)*%
X167689600Y-72455800D03*
%TO.P,U1,12,A2*%
%TO.N,Net-(J1-Pin_3)*%
X167689600Y-71795400D03*
%TO.P,U1,13,~OE2*%
%TO.N,Net-(J1-Pin_1)*%
X167689600Y-71160400D03*
%TO.P,U1,14,VCC*%
%TO.N,Net-(J1-Pin_2)*%
X167689600Y-70500000D03*
%TD*%
D11*
%TO.P,R6,1*%
%TO.N,Net-(MK2-DATA)*%
X150850000Y-66000000D03*
%TO.P,R6,2*%
%TO.N,Net-(J1-Pin_4)*%
X152500000Y-66000000D03*
%TD*%
D10*
%TO.P,R2,1*%
%TO.N,Net-(U1-O1)*%
X151825000Y-74000000D03*
%TO.P,R2,2*%
%TO.N,Net-(MK2-CLK)*%
X150175000Y-74000000D03*
%TD*%
D14*
%TO.P,C1,1*%
%TO.N,Net-(J1-Pin_1)*%
X170000000Y-71325000D03*
%TO.P,C1,2*%
%TO.N,Net-(J1-Pin_2)*%
X170000000Y-69675000D03*
%TD*%
D19*
%TO.P,C4,1*%
%TO.N,Net-(J1-Pin_2)*%
X152500000Y-79520000D03*
%TO.P,C4,2*%
%TO.N,Net-(J1-Pin_1)*%
X152500000Y-80480000D03*
%TD*%
D11*
%TO.P,R4,1*%
%TO.N,Net-(U1-O3)*%
X175675000Y-74500000D03*
%TO.P,R4,2*%
%TO.N,Net-(MK4-CLK)*%
X177325000Y-74500000D03*
%TD*%
D16*
%TO.P,MK1,1,DATA*%
%TO.N,Net-(MK1-DATA)*%
X149150000Y-52180000D03*
%TO.P,MK1,2,VDD*%
%TO.N,Net-(J1-Pin_2)*%
X149150000Y-51480000D03*
%TO.P,MK1,3,CLK*%
%TO.N,Net-(MK1-CLK)*%
X150850000Y-52180000D03*
%TO.P,MK1,4,SEL*%
%TO.N,Net-(J1-Pin_1)*%
X150850000Y-51480000D03*
D18*
%TO.P,MK1,5,GND*%
X150000000Y-50780000D03*
%TD*%
D21*
%TO.N,Net-(J1-Pin_2)*%
X178000000Y-54000000D03*
X152000000Y-53500000D03*
X152000000Y-76000000D03*
X178000000Y-76000000D03*
%TO.N,Net-(J1-Pin_1)*%
X151500000Y-79500000D03*
X163500000Y-74411600D03*
X180000000Y-51000000D03*
X163500000Y-70500000D03*
X163500000Y-72455800D03*
X166122200Y-71195400D03*
X170000000Y-49000000D03*
X178000000Y-79000000D03*
X175500000Y-52000000D03*
X150500000Y-51000000D03*
X171000000Y-56500000D03*
X166116200Y-73116200D03*
%TO.N,Net-(J1-Pin_5)*%
X175000000Y-65000000D03*
%TO.N,Net-(MK1-CLK)*%
X153000000Y-52500000D03*
X153000000Y-54500000D03*
%TO.N,Net-(U1-O0)*%
X155250000Y-65750000D03*
X153000000Y-59000000D03*
%TD*%
D22*
%TO.N,Net-(J1-Pin_2)*%
X149725000Y-51480000D02*
X150017843Y-51772843D01*
X152500000Y-53500000D02*
X152520000Y-53480000D01*
X179150000Y-51480000D02*
X178020000Y-51480000D01*
X177500000Y-76500000D02*
X178000000Y-76000000D01*
X178000000Y-54000000D02*
X178000000Y-53500000D01*
X178020000Y-51480000D02*
X177000000Y-52500000D01*
X150017843Y-52482157D02*
X151035686Y-53500000D01*
X150017843Y-51772843D02*
X150017843Y-52482157D01*
X149150000Y-51480000D02*
X149725000Y-51480000D01*
X177500000Y-77350000D02*
X177500000Y-76500000D01*
X179150000Y-78500000D02*
X178650000Y-78500000D01*
X167500000Y-70310400D02*
X167689600Y-70500000D01*
X170000000Y-69675000D02*
X167825000Y-69675000D01*
X151425000Y-78500000D02*
X150850000Y-78500000D01*
X167675000Y-56500000D02*
X167675000Y-56175000D01*
X178000000Y-53500000D02*
X177000000Y-52500000D01*
X151035686Y-53500000D02*
X152000000Y-53500000D01*
X167500000Y-56000000D02*
X167500000Y-70000000D01*
X178650000Y-78500000D02*
X177500000Y-77350000D01*
X150850000Y-78500000D02*
X149150000Y-78500000D01*
X167825000Y-69675000D02*
X167500000Y-70000000D01*
X150850000Y-78500000D02*
X151480000Y-78500000D01*
X167500000Y-52500000D02*
X167500000Y-56000000D01*
X152000000Y-53500000D02*
X152500000Y-53500000D01*
X152520000Y-53480000D02*
X154000000Y-53480000D01*
X167500000Y-70000000D02*
X167500000Y-70310400D01*
X167675000Y-56175000D02*
X167500000Y-56000000D01*
X179150000Y-78500000D02*
X180850000Y-78500000D01*
X152000000Y-77925000D02*
X151425000Y-78500000D01*
X151480000Y-78500000D02*
X152500000Y-79520000D01*
X152000000Y-76000000D02*
X152000000Y-77925000D01*
%TO.N,Net-(J1-Pin_1)*%
X178020000Y-79000000D02*
X178000000Y-79000000D01*
X150370000Y-51000000D02*
X150500000Y-51000000D01*
X176000000Y-51500000D02*
X176020000Y-51520000D01*
X166116200Y-73116200D02*
X167689600Y-73116200D01*
X151500000Y-79480000D02*
X151220000Y-79200000D01*
X176020000Y-51520000D02*
X177000000Y-51520000D01*
X175500000Y-52000000D02*
X176000000Y-51500000D01*
X178000000Y-79000000D02*
X178000000Y-78980000D01*
X163500000Y-72455800D02*
X162000000Y-72455800D01*
X168600800Y-71160400D02*
X168765400Y-71325000D01*
X150500000Y-51130000D02*
X150850000Y-51480000D01*
X178220000Y-79200000D02*
X178020000Y-79000000D01*
X168600800Y-71160400D02*
X167689600Y-71160400D01*
X177000000Y-50853333D02*
X179853333Y-50853333D01*
X151220000Y-79200000D02*
X150000000Y-79200000D01*
X152960000Y-51480000D02*
X150850000Y-51480000D01*
X152500000Y-80480000D02*
X151520000Y-79500000D01*
X177000000Y-51540000D02*
X177000000Y-50853333D01*
X150000000Y-50780000D02*
X150150000Y-50780000D01*
X180000000Y-79200000D02*
X178220000Y-79200000D01*
X170000000Y-52500000D02*
X170000000Y-49000000D01*
X150500000Y-51000000D02*
X150500000Y-51130000D01*
X166122200Y-71195400D02*
X166244400Y-71317600D01*
X180000000Y-50780000D02*
X180150000Y-50780000D01*
X167689600Y-71310400D02*
X167689600Y-71160400D01*
X163500000Y-74411600D02*
X162000000Y-74411600D01*
X178000000Y-78980000D02*
X177500000Y-78480000D01*
X167682400Y-71317600D02*
X167689600Y-71310400D01*
X166244400Y-71317600D02*
X167682400Y-71317600D01*
X179853333Y-50853333D02*
X180000000Y-51000000D01*
X150150000Y-50780000D02*
X150370000Y-51000000D01*
X180000000Y-51000000D02*
X180000000Y-50780000D01*
X151520000Y-79500000D02*
X151500000Y-79500000D01*
X151500000Y-79500000D02*
X151500000Y-79480000D01*
X154000000Y-52520000D02*
X152960000Y-51480000D01*
X180150000Y-50780000D02*
X180850000Y-51480000D01*
X169325000Y-56500000D02*
X171000000Y-56500000D01*
X163500000Y-70500000D02*
X162000000Y-70500000D01*
X168765400Y-71325000D02*
X170000000Y-71325000D01*
%TO.N,Net-(J1-Pin_3)*%
X162000000Y-71160400D02*
X165000000Y-71160400D01*
X165000000Y-73500000D02*
X165251200Y-73751200D01*
X162000000Y-73116200D02*
X164616200Y-73116200D01*
X165295400Y-71795400D02*
X165000000Y-71500000D01*
X164616200Y-73116200D02*
X165000000Y-73500000D01*
X165000000Y-52500000D02*
X165000000Y-71000000D01*
X165251200Y-73751200D02*
X167689600Y-73751200D01*
X165000000Y-72000000D02*
X165000000Y-73500000D01*
X167689600Y-71795400D02*
X165295400Y-71795400D01*
X165000000Y-71000000D02*
X165000000Y-72000000D01*
%TO.N,Net-(J1-Pin_4)*%
X162860000Y-58121385D02*
X162500000Y-58121385D01*
X163100000Y-60881385D02*
X163100000Y-60761385D01*
X152500000Y-65000000D02*
X152500000Y-64000000D01*
X162500000Y-58121385D02*
X162260000Y-58121385D01*
X162260000Y-62921385D02*
X162140000Y-62921385D01*
X162140000Y-61121385D02*
X162500000Y-61121385D01*
X162500000Y-61121385D02*
X162860000Y-61121385D01*
X162500000Y-60521385D02*
X162140000Y-60521385D01*
X161900000Y-61481385D02*
X161900000Y-61361385D01*
X162140000Y-62321385D02*
X162260000Y-62321385D01*
X162260000Y-62321385D02*
X162500000Y-62321385D01*
X162500000Y-57281385D02*
X162500000Y-57161385D01*
X152500000Y-65000000D02*
X162500000Y-65000000D01*
X162500000Y-65000000D02*
X162500000Y-63161385D01*
X162500000Y-57161385D02*
X162500000Y-56822771D01*
X162500000Y-61721385D02*
X162140000Y-61721385D01*
X162140000Y-57521385D02*
X162260000Y-57521385D01*
X152500000Y-66000000D02*
X152500000Y-65000000D01*
X162860000Y-59321385D02*
X162500000Y-59321385D01*
X161900000Y-59081385D02*
X161900000Y-58961385D01*
X161900000Y-62681385D02*
X161900000Y-62561385D01*
X163100000Y-59681385D02*
X163100000Y-59561385D01*
X161900000Y-57881385D02*
X161900000Y-57761385D01*
X162500000Y-59321385D02*
X162140000Y-59321385D01*
X162260000Y-58121385D02*
X162140000Y-58121385D01*
X162140000Y-58721385D02*
X162500000Y-58721385D01*
X163100000Y-62081385D02*
X163100000Y-61961385D01*
X162860000Y-61721385D02*
X162500000Y-61721385D01*
X162500000Y-58721385D02*
X162860000Y-58721385D01*
X162500000Y-62321385D02*
X162860000Y-62321385D01*
X161900000Y-60281385D02*
X161900000Y-60161385D01*
X162500000Y-56822771D02*
X162500000Y-52500000D01*
X163100000Y-58481385D02*
X163100000Y-58361385D01*
X162860000Y-60521385D02*
X162500000Y-60521385D01*
X162140000Y-59921385D02*
X162500000Y-59921385D01*
X162500000Y-59921385D02*
X162860000Y-59921385D01*
X163100000Y-60761385D02*
G75*
G03*
X162860000Y-60521400I-240000J-15D01*
G01*
X162860000Y-62321385D02*
G75*
G03*
X163099985Y-62081385I0J239985D01*
G01*
X161900000Y-60161385D02*
G75*
G02*
X162140000Y-59921400I240000J-15D01*
G01*
X162860000Y-58721385D02*
G75*
G03*
X163099985Y-58481385I0J239985D01*
G01*
X162140000Y-61721385D02*
G75*
G02*
X161900015Y-61481385I0J239985D01*
G01*
X163100000Y-61961385D02*
G75*
G03*
X162860000Y-61721400I-240000J-15D01*
G01*
X163100000Y-58361385D02*
G75*
G03*
X162860000Y-58121400I-240000J-15D01*
G01*
X162260000Y-57521385D02*
G75*
G03*
X162499985Y-57281385I0J239985D01*
G01*
X162140000Y-58121385D02*
G75*
G02*
X161900015Y-57881385I0J239985D01*
G01*
X161900000Y-58961385D02*
G75*
G02*
X162140000Y-58721400I240000J-15D01*
G01*
X162140000Y-60521385D02*
G75*
G02*
X161900015Y-60281385I0J239985D01*
G01*
X161900000Y-61361385D02*
G75*
G02*
X162140000Y-61121400I240000J-15D01*
G01*
X161900000Y-62561385D02*
G75*
G02*
X162140000Y-62321400I240000J-15D01*
G01*
X162500000Y-63161385D02*
G75*
G03*
X162260000Y-62921400I-240000J-15D01*
G01*
X162860000Y-61121385D02*
G75*
G03*
X163099985Y-60881385I0J239985D01*
G01*
X162860000Y-59921385D02*
G75*
G03*
X163099985Y-59681385I0J239985D01*
G01*
X162140000Y-62921385D02*
G75*
G02*
X161900015Y-62681385I0J239985D01*
G01*
X163100000Y-59561385D02*
G75*
G03*
X162860000Y-59321400I-240000J-15D01*
G01*
X161900000Y-57761385D02*
G75*
G02*
X162140000Y-57521400I240000J-15D01*
G01*
X162140000Y-59321385D02*
G75*
G02*
X161900015Y-59081385I0J239985D01*
G01*
%TO.N,Net-(J1-Pin_5)*%
X177350000Y-65000000D02*
X177350000Y-66000000D01*
X177350000Y-65000000D02*
X175000000Y-65000000D01*
X177350000Y-64000000D02*
X177350000Y-65000000D01*
%TO.N,Net-(MK1-CLK)*%
X152680000Y-52180000D02*
X153000000Y-52500000D01*
X153000000Y-54500000D02*
X153000000Y-55500000D01*
X150850000Y-52180000D02*
X152680000Y-52180000D01*
%TO.N,Net-(MK1-DATA)*%
X149150000Y-63650000D02*
X149150000Y-52180000D01*
X149500000Y-64000000D02*
X149150000Y-63650000D01*
X150850000Y-64000000D02*
X149500000Y-64000000D01*
%TO.N,Net-(MK2-DATA)*%
X150850000Y-68216111D02*
X150850000Y-66000000D01*
X150090000Y-69079930D02*
X150610000Y-69079930D01*
X149850000Y-69439930D02*
X149850000Y-69319930D01*
X150850000Y-77800000D02*
X150850000Y-69919930D01*
X150850000Y-68719930D02*
X150850000Y-68216111D01*
X150850000Y-68839930D02*
X150850000Y-68719930D01*
X150610000Y-69679930D02*
X150090000Y-69679930D01*
X150610000Y-69079930D02*
G75*
G03*
X150850030Y-68839930I0J240030D01*
G01*
X149850000Y-69319930D02*
G75*
G02*
X150090000Y-69079900I240000J30D01*
G01*
X150090000Y-69679930D02*
G75*
G02*
X149849970Y-69439930I0J240030D01*
G01*
X150850000Y-69919930D02*
G75*
G03*
X150610000Y-69679900I-240000J30D01*
G01*
%TO.N,Net-(MK2-CLK)*%
X150010000Y-76680000D02*
X150010000Y-76800000D01*
X149770000Y-77040000D02*
X149390000Y-77040000D01*
X149150000Y-77280000D02*
X149150000Y-77400000D01*
X149390000Y-75840000D02*
X149150000Y-75840000D01*
X149610270Y-74000000D02*
X149150000Y-74460270D01*
X148530000Y-76440000D02*
X149150000Y-76440000D01*
X149390000Y-76440000D02*
X149770000Y-76440000D01*
X149150000Y-74460270D02*
X149150000Y-75000000D01*
X149150000Y-75840000D02*
X148530000Y-75840000D01*
X149150000Y-76440000D02*
X149390000Y-76440000D01*
X150175000Y-74000000D02*
X149610270Y-74000000D01*
X148290000Y-76080000D02*
X148290000Y-76200000D01*
X149150000Y-77400000D02*
X149150000Y-77800000D01*
X149390000Y-75240000D02*
X149770000Y-75240000D01*
X149770000Y-75840000D02*
X149390000Y-75840000D01*
X150010000Y-75480000D02*
X150010000Y-75600000D01*
X149770000Y-75240000D02*
G75*
G02*
X150010000Y-75480000I0J-240000D01*
G01*
X150010000Y-75600000D02*
G75*
G02*
X149770000Y-75840000I-240000J0D01*
G01*
X149770000Y-76440000D02*
G75*
G02*
X150010000Y-76680000I0J-240000D01*
G01*
X148290000Y-76200000D02*
G75*
G03*
X148530000Y-76440000I240000J0D01*
G01*
X149150000Y-75000000D02*
G75*
G03*
X149390000Y-75240000I240000J0D01*
G01*
X150010000Y-76800000D02*
G75*
G02*
X149770000Y-77040000I-240000J0D01*
G01*
X149390000Y-77040000D02*
G75*
G03*
X149150000Y-77280000I0J-240000D01*
G01*
X148530000Y-75840000D02*
G75*
G03*
X148290000Y-76080000I0J-240000D01*
G01*
%TO.N,Net-(MK3-CLK)*%
X181000000Y-60000000D02*
X180000000Y-60000000D01*
X180850000Y-52180000D02*
X181000000Y-52330000D01*
X181000000Y-52330000D02*
X181000000Y-60000000D01*
%TO.N,Net-(MK3-DATA)*%
X179150000Y-55295277D02*
X179150000Y-52180000D01*
X179150000Y-63850000D02*
X179150000Y-56609652D01*
X179150000Y-55369652D02*
X179150000Y-55295277D01*
X178902000Y-56361652D02*
X178438000Y-56361652D01*
X178438000Y-55741652D02*
X178902000Y-55741652D01*
X179150000Y-55493652D02*
X179150000Y-55369652D01*
X179000000Y-64000000D02*
X179150000Y-63850000D01*
X178190000Y-56113652D02*
X178190000Y-55989652D01*
X178438000Y-56361652D02*
G75*
G02*
X178190048Y-56113652I0J247952D01*
G01*
X178902000Y-55741652D02*
G75*
G03*
X179149952Y-55493652I0J247952D01*
G01*
X178190000Y-55989652D02*
G75*
G02*
X178438000Y-55741700I248000J-48D01*
G01*
X179150000Y-56609652D02*
G75*
G03*
X178902000Y-56361700I-248000J-48D01*
G01*
%TO.N,Net-(MK4-DATA)*%
X180850000Y-70200555D02*
X180850000Y-70320555D01*
X181440000Y-69600555D02*
X181440000Y-69720555D01*
X180850000Y-70320555D02*
X180850000Y-70337569D01*
X181090000Y-69360555D02*
X181200000Y-69360555D01*
X180850000Y-67850000D02*
X180850000Y-69120555D01*
X181200000Y-69960555D02*
X181090000Y-69960555D01*
X180850000Y-70337569D02*
X180850000Y-77800000D01*
X179000000Y-66000000D02*
X180850000Y-67850000D01*
X181440000Y-69720555D02*
G75*
G02*
X181200000Y-69960600I-240000J-45D01*
G01*
X180850000Y-69120555D02*
G75*
G03*
X181090000Y-69360600I240000J-45D01*
G01*
X181090000Y-69960555D02*
G75*
G03*
X180849955Y-70200555I0J-240045D01*
G01*
X181200000Y-69360555D02*
G75*
G02*
X181440045Y-69600555I0J-240045D01*
G01*
%TO.N,Net-(MK4-CLK)*%
X179150000Y-76664796D02*
X179150000Y-77800000D01*
X177325000Y-74500000D02*
X177325000Y-73500000D01*
X178570000Y-75620979D02*
X178570000Y-75754979D01*
X179418000Y-74682979D02*
X179712000Y-74682979D01*
X177325000Y-74500000D02*
X177500000Y-74500000D01*
X179150000Y-74150000D02*
X179150000Y-74414979D01*
X179150000Y-76290979D02*
X179150000Y-76424979D01*
X178838000Y-76022979D02*
X178882000Y-76022979D01*
X179712000Y-75352979D02*
X179418000Y-75352979D01*
X179418000Y-75352979D02*
X178838000Y-75352979D01*
X179980000Y-74950979D02*
X179980000Y-75084979D01*
X177325000Y-73500000D02*
X178500000Y-73500000D01*
X178500000Y-73500000D02*
X179150000Y-74150000D01*
X179150000Y-76424979D02*
X179150000Y-76664796D01*
X179712000Y-74682979D02*
G75*
G02*
X179980021Y-74950979I0J-268021D01*
G01*
X179980000Y-75084979D02*
G75*
G02*
X179712000Y-75353000I-268000J-21D01*
G01*
X179150000Y-74414979D02*
G75*
G03*
X179418000Y-74683000I268000J-21D01*
G01*
X178882000Y-76022979D02*
G75*
G02*
X179150021Y-76290979I0J-268021D01*
G01*
X178838000Y-75352979D02*
G75*
G03*
X178569979Y-75620979I0J-268021D01*
G01*
X178570000Y-75754979D02*
G75*
G03*
X178838000Y-76023000I268000J-21D01*
G01*
%TO.N,Net-(U1-O0)*%
X157386882Y-68024168D02*
X157542445Y-67868604D01*
X157287886Y-67345345D02*
X157153535Y-67479695D01*
X157620229Y-68568642D02*
X157485879Y-68702993D01*
X156651032Y-67288318D02*
X155250000Y-65887286D01*
X153000000Y-59000000D02*
X153000000Y-57150000D01*
X157542445Y-67868604D02*
X157676795Y-67734254D01*
X157231319Y-68179732D02*
X157386882Y-68024169D01*
X162000000Y-71795400D02*
X161158114Y-71795400D01*
X157676795Y-67423127D02*
X157599013Y-67345345D01*
X156764628Y-67401914D02*
X156651032Y-67288318D01*
X155250000Y-65887286D02*
X155250000Y-65750000D01*
X157386882Y-68024169D02*
X157386882Y-68024168D01*
X157096970Y-68314084D02*
X157231319Y-68179732D01*
X156842408Y-67479695D02*
X156764628Y-67401914D01*
X161158114Y-71795400D02*
X157931357Y-68568643D01*
X157174751Y-68702992D02*
X157096969Y-68625210D01*
X157931357Y-68568643D02*
G75*
G03*
X157620237Y-68568649I-155557J-155557D01*
G01*
X157676795Y-67734254D02*
G75*
G03*
X157676786Y-67423136I-155595J155554D01*
G01*
X157096969Y-68625210D02*
G75*
G02*
X157096922Y-68314036I155531J155610D01*
G01*
X157153535Y-67479695D02*
G75*
G02*
X156842409Y-67479695I-155563J155562D01*
G01*
X157599013Y-67345345D02*
G75*
G03*
X157287887Y-67345345I-155563J-155562D01*
G01*
X157485879Y-68702993D02*
G75*
G02*
X157174736Y-68703008I-155579J155593D01*
G01*
%TO.N,Net-(U1-O1)*%
X156340000Y-73751200D02*
X156340000Y-74611200D01*
X159940000Y-72891200D02*
X159940000Y-73511200D01*
X155740000Y-73511200D02*
X155740000Y-72891200D01*
X158740000Y-72891200D02*
X158740000Y-73751200D01*
X156340000Y-73511200D02*
X156340000Y-73751200D01*
X158980000Y-74851200D02*
X159100000Y-74851200D01*
X157780000Y-74851200D02*
X157900000Y-74851200D01*
X159340000Y-73751200D02*
X159340000Y-73511200D01*
X157180000Y-72651200D02*
X157300000Y-72651200D01*
X155980000Y-72651200D02*
X156100000Y-72651200D01*
X156940000Y-73751200D02*
X156940000Y-72891200D01*
X152073800Y-73751200D02*
X155500000Y-73751200D01*
X159580000Y-72651200D02*
X159700000Y-72651200D01*
X160300000Y-73751200D02*
X161131320Y-73751200D01*
X158140000Y-74611200D02*
X158140000Y-73751200D01*
X151825000Y-74000000D02*
X152073800Y-73751200D01*
X157540000Y-72891200D02*
X157540000Y-73751200D01*
X161131320Y-73751200D02*
X162000000Y-73751200D01*
X156580000Y-74851200D02*
X156700000Y-74851200D01*
X158380000Y-72651200D02*
X158500000Y-72651200D01*
X157540000Y-73751200D02*
X157540000Y-74611200D01*
X158740000Y-73751200D02*
X158740000Y-74611200D01*
X156940000Y-74611200D02*
X156940000Y-73751200D01*
X158140000Y-73751200D02*
X158140000Y-72891200D01*
X156340000Y-72891200D02*
X156340000Y-73511200D01*
X159340000Y-73511200D02*
X159340000Y-72891200D01*
X160180000Y-73751200D02*
X160300000Y-73751200D01*
X159340000Y-74611200D02*
X159340000Y-73751200D01*
X157300000Y-72651200D02*
G75*
G02*
X157540000Y-72891200I0J-240000D01*
G01*
X159100000Y-74851200D02*
G75*
G03*
X159340000Y-74611200I0J240000D01*
G01*
X155500000Y-73751200D02*
G75*
G03*
X155740000Y-73511200I0J240000D01*
G01*
X156100000Y-72651200D02*
G75*
G02*
X156340000Y-72891200I0J-240000D01*
G01*
X156340000Y-74611200D02*
G75*
G03*
X156580000Y-74851200I240000J0D01*
G01*
X157540000Y-74611200D02*
G75*
G03*
X157780000Y-74851200I240000J0D01*
G01*
X158140000Y-72891200D02*
G75*
G02*
X158380000Y-72651200I240000J0D01*
G01*
X157900000Y-74851200D02*
G75*
G03*
X158140000Y-74611200I0J240000D01*
G01*
X159700000Y-72651200D02*
G75*
G02*
X159940000Y-72891200I0J-240000D01*
G01*
X158740000Y-74611200D02*
G75*
G03*
X158980000Y-74851200I240000J0D01*
G01*
X159940000Y-73511200D02*
G75*
G03*
X160180000Y-73751200I240000J0D01*
G01*
X159340000Y-72891200D02*
G75*
G02*
X159580000Y-72651200I240000J0D01*
G01*
X155740000Y-72891200D02*
G75*
G02*
X155980000Y-72651200I240000J0D01*
G01*
X156700000Y-74851200D02*
G75*
G03*
X156940000Y-74611200I0J240000D01*
G01*
X156940000Y-72891200D02*
G75*
G02*
X157180000Y-72651200I240000J0D01*
G01*
X158500000Y-72651200D02*
G75*
G02*
X158740000Y-72891200I0J-240000D01*
G01*
%TO.N,Net-(U1-O2)*%
X173500000Y-64500000D02*
X173500000Y-67500000D01*
X171780000Y-71705800D02*
X171700000Y-71705800D01*
X173044200Y-72455800D02*
X172500000Y-72455800D01*
X171140000Y-73045800D02*
X171140000Y-72615800D01*
X173500000Y-67500000D02*
X173500000Y-70500000D01*
X173500000Y-72000000D02*
X173044200Y-72455800D01*
X171540000Y-72615800D02*
X171540000Y-73045800D01*
X171940000Y-72615800D02*
X171940000Y-72455800D01*
X170980000Y-72455800D02*
X170900000Y-72455800D01*
X172340000Y-72615800D02*
X172340000Y-72945800D01*
X173500000Y-70500000D02*
X173500000Y-72000000D01*
X178350000Y-60000000D02*
X178000000Y-60000000D01*
X171380000Y-73205800D02*
X171300000Y-73205800D01*
X171540000Y-72455800D02*
X171540000Y-72615800D01*
X178000000Y-60000000D02*
X173500000Y-64500000D01*
X171940000Y-72945800D02*
X171940000Y-72615800D01*
X171940000Y-72455800D02*
X171940000Y-71865800D01*
X170500000Y-72455800D02*
X167689600Y-72455800D01*
X172180000Y-73105800D02*
X172100000Y-73105800D01*
X170900000Y-72455800D02*
X170500000Y-72455800D01*
X171540000Y-71865800D02*
X171540000Y-72455800D01*
X171140000Y-72615800D02*
G75*
G03*
X170980000Y-72455800I-160000J0D01*
G01*
X172500000Y-72455800D02*
G75*
G03*
X172340000Y-72615800I0J-160000D01*
G01*
X172340000Y-72945800D02*
G75*
G02*
X172180000Y-73105800I-160000J0D01*
G01*
X171940000Y-71865800D02*
G75*
G03*
X171780000Y-71705800I-160000J0D01*
G01*
X172100000Y-73105800D02*
G75*
G02*
X171940000Y-72945800I0J160000D01*
G01*
X171700000Y-71705800D02*
G75*
G03*
X171540000Y-71865800I0J-160000D01*
G01*
X171540000Y-73045800D02*
G75*
G02*
X171380000Y-73205800I-160000J0D01*
G01*
X171300000Y-73205800D02*
G75*
G02*
X171140000Y-73045800I0J160000D01*
G01*
%TO.N,Net-(U1-O3)*%
X171552000Y-74500000D02*
X171552000Y-73732000D01*
X169812000Y-73732000D02*
X169812000Y-74268000D01*
X173292000Y-74500000D02*
X173292000Y-75268000D01*
X167778000Y-74500000D02*
X169000000Y-74500000D01*
X172132000Y-74500000D02*
X172132000Y-75268000D01*
X172364000Y-75500000D02*
X172480000Y-75500000D01*
X171552000Y-75268000D02*
X171552000Y-74500000D01*
X173524000Y-75500000D02*
X173640000Y-75500000D01*
X174452000Y-73732000D02*
X174452000Y-74268000D01*
X170044000Y-75500000D02*
X170160000Y-75500000D01*
X171204000Y-75500000D02*
X171320000Y-75500000D01*
X169812000Y-74500000D02*
X169812000Y-75268000D01*
X170392000Y-75268000D02*
X170392000Y-74500000D01*
X174800000Y-74500000D02*
X175224103Y-74500000D01*
X169232000Y-74268000D02*
X169232000Y-73732000D01*
X170972000Y-74500000D02*
X170972000Y-75268000D01*
X174684000Y-74500000D02*
X174800000Y-74500000D01*
X175224103Y-74500000D02*
X175675000Y-74500000D01*
X172944000Y-73500000D02*
X173060000Y-73500000D01*
X172712000Y-74500000D02*
X172712000Y-73732000D01*
X172132000Y-73732000D02*
X172132000Y-74500000D01*
X170392000Y-74500000D02*
X170392000Y-73732000D01*
X169812000Y-74268000D02*
X169812000Y-74500000D01*
X167689600Y-74411600D02*
X167778000Y-74500000D01*
X170972000Y-73732000D02*
X170972000Y-74500000D01*
X171784000Y-73500000D02*
X171900000Y-73500000D01*
X169464000Y-73500000D02*
X169580000Y-73500000D01*
X173872000Y-74268000D02*
X173872000Y-73732000D01*
X172712000Y-75268000D02*
X172712000Y-74500000D01*
X174104000Y-73500000D02*
X174220000Y-73500000D01*
X173872000Y-75268000D02*
X173872000Y-74500000D01*
X173872000Y-74500000D02*
X173872000Y-74268000D01*
X173292000Y-73732000D02*
X173292000Y-74500000D01*
X170624000Y-73500000D02*
X170740000Y-73500000D01*
X171552000Y-73732000D02*
G75*
G02*
X171784000Y-73500000I232000J0D01*
G01*
X173640000Y-75500000D02*
G75*
G03*
X173872000Y-75268000I0J232000D01*
G01*
X172712000Y-73732000D02*
G75*
G02*
X172944000Y-73500000I232000J0D01*
G01*
X170392000Y-73732000D02*
G75*
G02*
X170624000Y-73500000I232000J0D01*
G01*
X171900000Y-73500000D02*
G75*
G02*
X172132000Y-73732000I0J-232000D01*
G01*
X169232000Y-73732000D02*
G75*
G02*
X169464000Y-73500000I232000J0D01*
G01*
X170972000Y-75268000D02*
G75*
G03*
X171204000Y-75500000I232000J0D01*
G01*
X173872000Y-73732000D02*
G75*
G02*
X174104000Y-73500000I232000J0D01*
G01*
X170740000Y-73500000D02*
G75*
G02*
X170972000Y-73732000I0J-232000D01*
G01*
X169812000Y-75268000D02*
G75*
G03*
X170044000Y-75500000I232000J0D01*
G01*
X169000000Y-74500000D02*
G75*
G03*
X169232000Y-74268000I0J232000D01*
G01*
X173060000Y-73500000D02*
G75*
G02*
X173292000Y-73732000I0J-232000D01*
G01*
X172480000Y-75500000D02*
G75*
G03*
X172712000Y-75268000I0J232000D01*
G01*
X171320000Y-75500000D02*
G75*
G03*
X171552000Y-75268000I0J232000D01*
G01*
X172132000Y-75268000D02*
G75*
G03*
X172364000Y-75500000I232000J0D01*
G01*
X169580000Y-73500000D02*
G75*
G02*
X169812000Y-73732000I0J-232000D01*
G01*
X170160000Y-75500000D02*
G75*
G03*
X170392000Y-75268000I0J232000D01*
G01*
X174452000Y-74268000D02*
G75*
G03*
X174684000Y-74500000I232000J0D01*
G01*
X173292000Y-75268000D02*
G75*
G03*
X173524000Y-75500000I232000J0D01*
G01*
X174220000Y-73500000D02*
G75*
G02*
X174452000Y-73732000I0J-232000D01*
G01*
%TD*%
M02*
